<svg width="364" height="622" viewBox="0 0 364 622" fill="none" xmlns="http://www.w3.org/2000/svg">
<path d="M55 556.5C60.7365 572.381 68.4884 585.306 79.2858 597.5C106.286 620.035 132.129 618.203 153.821 620.035C140.653 616.465 106.302 599.24 98.5 587C86.8011 570.325 81.9384 546.562 90.5 527C97.7077 510.531 108.294 493.93 121 482C137.242 466.75 144.5 457.809 173.5 444.243C215.703 424.5 238.21 414.987 263.347 392.574C280.107 377.631 296.939 360.744 311 343C327.035 322.764 336.446 300.756 344.313 275.354C360.812 222.077 370.775 162.859 351.899 111.801C338.37 75.2083 274.882 17.9794 235.786 8.5C159.202 -10.0688 85.5257 6.99561 29.0338 69.4469C4.30471 96.7848 1.28574 132.414 1.28576 175C1.28578 201.5 4.02242 231.818 19.5 256C33.2668 277.509 52.5 289 64.5 324C76.5 359 77.7716 381.831 57.4099 433.5C52.3051 449.222 46.6349 475.62 45 492C44.1913 503.282 47.7906 531.952 55 556.5Z" fill="#2553F5" stroke="#2553F5" stroke-width="2" stroke-linecap="round"/>
</svg>
