<svg width="64" height="20" viewBox="0 0 64 20" fill="none" xmlns="http://www.w3.org/2000/svg">
<path d="M45.3061 11.4888C41.128 11.4888 36.9459 11.463 32.7879 10.9865C26.0346 10.2124 19.3937 8.66104 12.9757 6.42524C8.77306 4.96118 4.94762 2.99759 1 1M48.1995 6.96775C48.1995 8.03122 48.3426 9.05603 48.5331 10.0758M48.5331 10.0758C48.7079 11.0112 48.9227 11.9425 49.1037 12.8953C49.1798 13.2958 49.8528 16.103 49.6061 14.3019C49.4059 12.8407 48.9939 11.4513 48.5331 10.0758ZM48.5331 10.0758C48.1352 8.88788 47.701 7.71029 47.3355 6.5056C47.2666 6.27854 46.9383 5.45204 47.014 5.19952C47.0827 4.97064 48.9445 5.36213 49.0435 5.38036C49.8413 5.52733 63.0263 9.10085 62.2248 10.2631C61.5981 11.1717 60.2652 11.8188 59.3715 12.393C57.8677 13.359 56.4043 14.3589 54.971 15.4271C54.2456 15.9677 53.5944 16.712 52.8914 17.1953C52.7227 17.3113 51.4985 18.376 51.4647 18.1397C51.3314 17.2065 51.4922 16.1666 51.5451 15.2362C51.6425 13.5218 51.6355 11.8087 51.6355 10.0923C51.6355 9.4057 51.1602 7.68272 51.736 8.88667C52.1681 9.79011 52.8679 11.1419 53.7051 11.7399C53.8478 11.8418 53.7724 10.8365 53.8157 10.685C53.8939 10.411 54.7224 10.8264 54.971 10.7554C55.1457 10.7055 55.1308 10.4541 55.3528 10.4138C55.6678 10.3565 56.0282 10.4037 56.3474 10.4037C57.0757 10.4037 57.7721 10.5846 58.5075 10.5846" stroke="white" stroke-width="2" stroke-linecap="round"/>
</svg>
