<svg width="16" height="55" viewBox="0 0 16 55" fill="none" xmlns="http://www.w3.org/2000/svg">
<path d="M4.09985 1C4.09985 8.97741 3.89316 16.9849 4.20509 24.9564C4.39209 29.7351 4.78343 34.598 6.23335 39.1829C6.60187 40.3482 6.97099 41.6812 7.71627 42.6749" stroke="#F57C25" stroke-width="2" stroke-linecap="round"/>
<path d="M2.37769 44.397C5.30046 44.2432 8.1552 43.3597 11.0456 42.9332C12.2843 42.7505 13.5213 42.3305 14.7768 42.3305" stroke="#F57C25" stroke-width="2" stroke-linecap="round"/>
<path d="M1 45.9469C1.81897 45.9469 2.37767 46.3955 2.98999 46.9036C4.12497 47.8454 5.31133 48.7451 6.4916 49.6303C7.85279 50.6512 9.07369 51.9574 10.462 52.9118C10.5488 52.9715 11.0089 53.4269 11.1221 53.3137C11.214 53.2218 11.2045 52.8315 11.2369 52.7205C11.4633 51.9463 11.7969 51.1899 12.098 50.4435C12.8971 48.4627 13.7102 46.4845 14.5281 44.5118C14.7368 44.0084 14.7768 43.5522 14.7768 43.0193" stroke="#F57C25" stroke-width="2" stroke-linecap="round"/>
</svg>
