<svg width="31" height="100" viewBox="0 0 31 100" fill="none" xmlns="http://www.w3.org/2000/svg">
<path d="M10.0212 2C10.0212 4.57798 8.59978 6.57134 7.50692 8.84111C6.16329 11.6317 5.18046 14.9639 4.75879 18.0211C4.30027 21.3453 3.24137 24.5562 2.77077 27.9027C2.12752 32.4769 2.12756 36.9592 2.12759 41.5724L2.12759 41.6726C2.12759 46.8335 1.8048 52.108 2.18606 57.2551C2.61085 62.9897 5.52072 68.3535 7.91622 73.4516C9.69268 77.2322 12.4395 80.969 15.2251 84.0641C16.164 85.1073 17.8686 86.6321 18.441 87.777M13.4341 93.3813C13.7207 93.324 14.0605 92.9415 14.2774 92.7752C15.0908 92.1516 15.8816 91.5131 16.6491 90.8338C18.2978 89.3747 19.9875 87.9806 21.7265 86.6306C22.765 85.8243 23.7925 85.0139 24.8097 84.1797C25.186 83.8712 25.9217 83.4309 26.0835 82.9456M12.8806 93.5394L13.0291 93.5394C14.2553 93.5391 15.4591 93.5388 16.6754 93.7415C18.4519 94.0376 20.195 94.6684 21.8538 95.3578C24.0204 96.2582 26.1454 97.2839 28.341 98.1073C28.528 98.1774 28.72 98.2928 28.9119 98.3445C29.1073 98.3971 28.8973 97.7902 28.8856 97.7339C28.3546 95.1756 27.9227 92.5755 27.5152 89.995C27.2291 88.1825 27.0764 86.3494 26.7949 84.5355C26.6878 83.8452 26.63 83.1485 26.5226 82.4581C26.4997 82.3105 26.5341 82.0641 26.3996 81.9969" stroke="#F57C25" stroke-width="3" stroke-linecap="round"/>
</svg>
