<svg width="18" height="34" viewBox="0 0 18 34" fill="none" xmlns="http://www.w3.org/2000/svg">
<path d="M15.9824 2.37959C14.436 2.37959 12.8896 2.37959 11.3432 2.37959C10.2499 2.37959 7.04825 1.99513 8.06335 2.40117C10.5746 3.40567 12.7811 9.26631 13.9541 11.5286C14.2634 12.125 16.0431 14.3161 15.3782 14.981C13.8271 16.5321 9.7656 16.9458 7.82599 17.9156C6.68264 18.4873 5.45285 18.9612 4.3304 19.5555C3.90915 19.7785 4.92725 20.6417 5.1072 21.0228C5.76732 22.4207 6.6608 24.7122 6.6608 26.2662C6.6608 27.4949 6.6915 28.075 5.4956 28.7045C4.4067 29.2776 2 30.0641 2 31.5096" stroke="#F57C25" stroke-width="3" stroke-linecap="round"/>
</svg>
