<svg width="25" height="56" viewBox="0 0 25 56" fill="none" xmlns="http://www.w3.org/2000/svg">
<path d="M2.46094 2.2724C2.46094 6.01254 2.46094 9.75269 2.46094 13.4928C2.46094 14.8495 3.68473 13.9882 4.40294 13.536C6.15319 12.434 7.89532 11.854 9.84053 11.2056C11.3658 10.6972 14.5373 9.28122 13.4872 12.1982C12.7258 14.313 11.37 16.0278 10.8115 18.2615C10.0245 21.4098 9.26254 24.4036 8.86953 27.6263C8.55284 30.2231 8.60339 30.67 10.7036 29.072C13.0777 27.2656 17.4855 26.0981 20.4784 26.7632C21.1523 26.9129 20.7157 33.1969 20.7157 33.6033C20.7157 39.0662 20.4492 44.6549 21.4925 50.0456C21.7172 51.2065 21.8523 53.1242 22.6577 53.9295" stroke="#F57C25" stroke-width="3" stroke-linecap="round"/>
</svg>
