<svg width="41" height="37" viewBox="0 0 41 37" fill="none" xmlns="http://www.w3.org/2000/svg">
<path d="M14.4224 34.165C14.4224 33.8851 14.4228 33.6054 14.4235 33.3258M14.4235 33.3258C14.4359 28.5683 14.5528 23.8446 14.7205 19.1094M14.4235 33.3258C14.6052 33.0188 14.7819 32.721 14.8991 32.4436C15.8041 30.3002 17.074 28.2932 18.236 26.2862C19.0067 24.9549 19.817 23.6444 20.6634 22.3552M14.4235 33.3258C14.0746 33.9151 13.7073 34.5385 13.7073 35.1184M14.7205 19.1094C14.7714 17.6719 14.827 16.2333 14.8858 14.7924C14.9715 12.6948 15.3598 10.6543 15.7217 8.60137M14.7205 19.1094C16.1991 19.8507 17.6491 20.6292 19.057 21.4265C19.5952 21.7313 20.1304 22.0413 20.6634 22.3552M14.7205 19.1094C11.7224 17.6064 8.60648 16.2569 5.48425 15.2161C4.55556 14.9066 2.79699 14.886 2.08113 14.0906C1.70528 13.673 2.7471 13.3566 2.9286 13.2961C6.53031 12.0955 10.0448 10.7074 13.6014 9.37654C14.3079 9.11218 15.0146 8.85392 15.7217 8.60137M15.7217 8.60137C15.9405 7.35987 16.1496 6.11382 16.2762 4.84788C16.2989 4.62084 16.3172 4.05684 16.3294 3.50127M15.7217 8.60137C16.5246 8.3146 17.328 8.0352 18.1322 7.7626M16.3294 3.50127C16.3449 2.79242 16.3504 2.0973 16.3424 2.13333C16.2508 2.54564 16.2598 3.02609 16.3294 3.50127ZM16.3294 3.50127C16.406 4.02452 16.5562 4.54138 16.7264 4.95381C17.1235 5.91554 17.6036 6.84922 18.1322 7.7626M18.1322 7.7626C19.324 9.82203 20.7621 11.7782 22.0496 13.7198C22.8125 14.8703 23.5757 16.0251 24.3309 17.1853M18.1322 7.7626C24.0163 5.76799 29.9418 4.1373 36.0063 2.64976L36.1164 2.62278C37.0111 2.40345 37.9582 2.17128 38.8268 1.88174C39.0178 1.81809 37.9217 2.59039 37.7675 2.72921C32.897 7.11267 28.3293 11.9476 24.3309 17.1853M24.3309 17.1853C25.1549 18.4511 25.9694 19.7231 26.7636 21.0027C27.6529 22.4354 28.2632 24.0334 29.2001 25.4387C29.4025 25.7423 31.4232 28.2062 30.8156 28.2062C29.6245 28.2062 28.446 27.0895 27.4919 26.5113C25.2139 25.1307 22.9594 23.7074 20.6634 22.3552M24.3309 17.1853C23.0467 18.8676 21.8213 20.5914 20.6634 22.3552M5.84177 12.4751C9.18458 13.3286 12.0208 15.5666 13.9324 18.3147C14.79 19.5474 15.4748 20.9271 16.21 22.2342C16.3956 22.5641 17.4905 24.6447 17.1766 23.5186C16.1865 19.9658 15.4925 16.4384 15.0845 12.7664C15.0407 12.3722 14.4975 9.70812 15.0315 9.40301C15.4443 9.16711 15.5628 10.4485 15.6141 10.6212C16.3067 12.9543 17.8217 14.8845 19.3748 16.7124C20.4751 18.0076 21.5353 19.3497 22.7382 20.5525C22.9241 20.7385 23.4797 21.5304 23.4797 20.91C23.4797 16.5977 23.003 12.3138 23.003 7.99939C23.003 7.71157 22.8118 6.27797 23.2413 6.27797C23.5992 6.27797 23.5152 6.98217 23.6121 7.23137C23.9831 8.1853 24.6923 8.99914 25.5057 9.60163C26.2578 10.1587 28.0083 12.0281 28.0083 10.171C28.0083 8.21274 28.4068 5.72071 29.9152 4.37117C31.0494 3.35632 31.3698 7.68351 32.537 6.51632" stroke="#2553F5" stroke-width="3" stroke-linecap="round"/>
</svg>
