<svg width="21" height="29" viewBox="0 0 21 29" fill="none" xmlns="http://www.w3.org/2000/svg">
<path d="M9.70463 25.3012V24.0171M9.70463 24.0171V17.4422M9.70463 24.0171C10.1836 22.9827 10.8068 21.9856 11.3408 21.2538C12.0806 20.24 12.79 19.209 13.488 18.172M9.70463 24.0171C9.25306 24.9923 8.92959 26.0006 8.92959 26.8513M9.70463 17.4422V12.2372M9.70463 17.4422C11.0214 17.6112 12.2866 17.7975 13.3646 18.1321C13.4057 18.1448 13.4469 18.1582 13.488 18.172M9.70463 17.4422C6.83134 17.0735 3.71286 16.7876 1.76044 15.2256C0.784783 14.4451 4.50406 13.542 4.73144 13.4818C6.38991 13.0428 8.05402 12.6654 9.70463 12.2372M9.70463 12.2372V2.84648C9.70463 0.323112 10.0604 4.18102 10.0922 4.84868C10.1987 7.08595 11.4618 9.25474 12.9146 11.3024M9.70463 12.2372C10.7821 11.9577 11.8539 11.6565 12.9146 11.3024M12.9146 11.3024C13.8203 12.5789 14.7998 13.8084 15.6188 14.9781M12.9146 11.3024C13.2379 11.1944 13.5602 11.0816 13.8813 10.9629C15.5273 10.3546 21.0032 7.46184 18.144 11.3504C17.2697 12.5394 16.4385 13.7548 15.6188 14.9781M15.6188 14.9781C15.8509 15.3095 16.07 15.6361 16.271 15.9576C16.506 16.3336 19.1278 19.826 18.2301 19.8759C16.5717 19.968 15.0466 18.6972 13.488 18.172M15.6188 14.9781C14.9067 16.0408 14.2033 17.1095 13.488 18.172M7.19336 13.5803C7.33844 14.3782 8.97835 16.1941 9.9488 15.9168C10.3111 15.8133 10.2812 13.6761 10.7121 13.2452C11.7597 12.1976 12.1149 17.5922 13.5607 15.4234" stroke="#2553F5" stroke-width="3" stroke-linecap="round"/>
</svg>
