<svg width="420" height="217" viewBox="0 0 420 217" fill="none" xmlns="http://www.w3.org/2000/svg">
<path d="M58.945 17.2532C63.8661 37.484 67.4743 57.3321 75.7954 76.5678C74.5399 77.1956 77.2312 81.3135 78.2026 82.2849C80.6426 84.7249 85.102 82.7575 80.8354 87.0241C76.9442 90.9153 71.4652 93.8566 66.9565 96.9161C56.1527 104.247 44.5519 111.011 34.6475 119.521C27.4228 125.729 20.5447 132.496 13.8103 139.23C10.7866 142.254 7.70293 145.264 5.46033 148.934C3.91481 151.463 2 153.938 2 156.983C2 163.724 19.3452 158.364 22.6115 157.698C44.5283 153.225 65.845 144.402 86.0259 134.942C94.0298 131.19 101.49 126.755 109.646 123.583C110.596 123.214 111.631 122.488 112.655 122.342C113.353 122.242 113.002 129.005 112.994 129.3C112.552 145.857 110.749 162.438 111.828 179.024C111.995 181.595 111.672 185.38 112.392 187.9C112.934 189.798 118.476 185.988 118.749 185.794C125.167 181.23 130.337 175.162 135.448 169.245C144.746 158.481 153.313 147.078 162.755 136.447C165.237 133.652 165.433 133.905 167.344 136.597C169.638 139.83 171.568 143.315 173.851 146.564C183.276 159.984 197.093 176.09 214.886 176.09C216.949 176.09 217.887 176.173 219.437 174.623C228.142 165.918 234.62 155.624 241.365 145.398C244.752 140.263 247.764 134.99 250.805 129.669L251.144 129.075C251.735 128.041 254.513 134.072 254.68 134.416C260.14 145.717 261.761 159.184 264.007 171.426C264.426 173.706 264.394 176.767 267.054 176.767C272.428 176.767 278.638 171.214 282.212 167.891C289.903 160.737 297.713 152.32 302.823 143.029C303.726 141.387 303.518 141.493 304.779 140.358C305.549 139.665 307.337 137.554 307.337 138.591C307.337 143.099 309.782 148.632 311.248 152.77C316.152 166.609 320.571 180.64 325.654 194.407C326.083 195.569 333.544 218.187 337.464 214.267C340.968 210.763 340.981 202.025 341.865 197.604C345.945 177.202 346.604 156.508 346.604 135.77C346.604 127.6 346.124 119.261 346.604 111.096C346.692 109.602 354.976 110.386 356.082 110.268C372.6 108.511 388.839 103.154 405.054 99.6618C405.774 99.5066 418.019 98.3885 417.541 97.706C416.414 96.0968 411.881 95.0598 410.169 94.4713C391.184 87.9454 371.69 82.7641 352.321 77.9219C351.174 77.635 353.585 75.9222 354.202 74.9129C356.468 71.2039 358.543 67.4051 360.558 63.554C365.76 53.6127 370.065 43.0104 376.092 33.5394C378.168 30.2767 374.868 30.9746 372.707 32.0349C367.14 34.7659 362.637 39.0517 356.985 41.7388C344.112 47.859 330.833 52.7122 317.417 57.4608C313.036 59.0114 307.661 63.0274 302.936 63.0274C298.171 63.0274 298.901 53.7293 298.385 50.841C297.118 43.744 294.551 36.5055 292.029 29.7781C289.059 21.8604 282.453 12.6908 282.287 4.05131C282.272 3.26465 284.671 1.31659 282.137 2.24592C278.673 3.51583 275.226 6.08253 272.207 8.11344C264.458 13.3263 256.988 19.0756 249.715 24.9261C238.92 33.6087 228.593 43.0015 218.797 52.7969C216.346 55.2478 214.355 58.335 211.877 60.6955C210.745 61.7734 205.848 57.232 205.37 56.859C194.49 48.3678 183.74 39.1826 174.152 29.2516C173.154 28.2181 166.451 18.8618 165.689 19.5476C162.498 22.4194 160.776 28.0491 158.542 31.7716C153.009 40.9945 146.429 49.6073 139.661 57.9498C137.402 60.7344 134.51 65.6691 131.311 67.6161C129.76 68.5601 117.203 56.7634 115.852 55.7306C100.274 43.8175 83.7265 33.2196 68.3481 21.0521C64.6197 18.1021 59.9217 15.295 57.6662 10.972C56.6779 9.0776 58.44 15.1771 58.945 17.2532Z" stroke="#2553F5" stroke-width="3" stroke-linecap="round"/>
</svg>
