<svg width="317" height="324" viewBox="0 0 317 324" fill="none" xmlns="http://www.w3.org/2000/svg">
<path d="M100.267 341.198C96.003 346.071 76.6534 341.059 71.2757 340.401C53.6925 338.252 36.2399 334.899 18.7881 331.879C17.6173 331.676 -6.47104 327.353 5.1684 322.56C19.8043 316.534 35.4611 312.541 50.4081 307.348C68.587 301.031 87.4398 293.445 106.4 289.746C109.162 289.207 116.385 289.458 112.214 285.843C102.232 277.192 96.2127 266.867 90.9486 254.701C81.9941 234.006 74.9103 212.308 67.6119 190.983C63.8959 180.125 58.1639 169.378 56.1427 158.009C55.0657 151.951 62.548 158.105 64.7446 159.204C81.3335 167.498 100.885 169.471 118.666 174.177C135.801 178.713 154.263 183.122 170.516 190.346C174.489 192.111 173.354 186.471 173.384 184.292C173.628 166.22 177.755 148.242 180.552 130.451C183.051 114.556 185.987 98.7366 188.357 82.8218C188.501 81.8542 188.285 70.9619 191.225 73.9013C193.402 76.0789 194.837 79.6329 196.959 82.0253C207.022 93.3693 220.529 101.553 232.482 110.698C242.913 118.679 252.644 127.042 262.19 136.026C265.889 139.507 269.529 144.513 273.102 147.575C274.844 149.068 277.248 149.95 278.12 147.336C284.302 128.79 300.428 110.843 313.404 96.8397C343.661 64.1852 378.29 34.8989 412.166 6.04175C420.099 -0.715698 418.538 1.08214 418.538 10.8206C418.538 32.5504 431.858 52.8569 440.839 72.149C446.162 83.5826 451.721 95.6393 458.68 106.079" stroke="#F57C25" stroke-width="4" stroke-linecap="round"/>
<path d="M153.234 370.693C150.016 370.693 146.998 369.421 144.142 368.032C131.724 361.99 121.767 351.944 112.74 341.686C108.993 337.428 103.648 332.018 101.075 326.872C100.478 325.678 103.615 325.294 104.402 325.142C126.105 320.941 147.028 313.058 168.847 309.219C169.917 309.031 175.65 309.16 175.588 307.445C175.414 302.572 171.889 296.917 170.798 292.099C167.651 278.2 164.02 264.457 160.819 250.584C160.211 247.949 160.148 245.213 159.577 242.645C159.333 241.546 165.459 244.326 166.407 244.597C187.051 250.495 208.726 252.126 229.699 256.528C230.562 256.709 235.196 258.237 236.086 257.149C236.614 256.503 236.264 254.472 236.264 253.778C236.264 249.242 236.259 244.721 236.796 240.206C238.175 228.609 241.219 217.126 243.404 205.655C244.247 201.229 244.297 196.663 245.09 192.304C245.506 190.013 245.719 191.136 245.888 192.659C246.404 197.299 249.449 201.368 252.364 204.768C262.081 216.104 273.021 226.242 282.213 237.988C282.706 238.618 284.548 242.096 285.762 241.004C289.392 237.736 292.474 233.948 296.318 230.803C309.237 220.232 322.577 210.188 334.772 198.78C335.887 197.737 343.243 190.392 343.243 194.345C343.243 197.774 343.211 201.205 343.243 204.634C343.337 214.598 347.195 223.059 351.404 231.956C356.525 242.778 361.377 253.86 367.017 264.423C368.724 267.62 371.099 270.549 371.984 274.092" stroke="#2553F5" stroke-width="3" stroke-linecap="round"/>
<path d="M161 242.02C161 246.181 163.449 249.995 165.386 253.576C167.99 258.388 171.737 262.808 175.044 267.156C178.758 272.038 181.823 277.368 185.503 282.275C189.055 287.01 193.002 291.478 196.89 295.94C202.532 302.414 208.168 309.084 213.212 316.036C217.12 321.423 221.445 327.206 224.008 333.412C224.36 334.264 226.322 336.822 224.24 335.014C218.777 330.27 214.279 323.672 210.154 317.828C201.669 305.807 194.441 292.929 187.338 280.061C181.298 269.12 174.231 258.757 167.474 248.283C166.241 246.372 165.397 244.32 164.037 242.484C163.412 241.641 162.24 241.116 161.464 240.417C160.268 239.341 162.327 240.353 162.792 240.818C174.616 252.641 184.842 266.071 194.36 279.766C205.135 295.27 215.672 311.103 227.467 325.862C231.138 330.456 234.985 335.161 237.968 340.244C238.127 340.515 239.298 342.509 238.959 342.585C237.858 342.829 236.457 341.259 235.817 340.666C230.881 336.082 226.322 330.877 222.195 325.567C213.038 313.784 203.911 301.232 196.574 288.222C192.717 281.382 189.27 274.631 184.723 268.231C182.522 265.134 179.736 262.341 177.87 259.016C175.926 255.554 175.471 251.958 174.285 248.262C174.115 247.733 173.201 246.281 173.779 246.596C180.562 250.296 187.392 254.049 193.306 259.101C206.635 270.486 216.847 286.095 226.244 300.727C231.716 309.247 236.807 318.053 241.469 327.043C241.743 327.572 246.825 336.439 246.572 336.511C245.793 336.734 244.645 335.369 244.252 334.972C240.398 331.079 236.968 326.634 233.498 322.404C224.831 311.843 218.166 299.422 208.615 289.635C199.926 280.732 190.948 272.207 184.133 261.758C182.217 258.82 180.186 255.923 178.545 252.817C178.068 251.914 176.796 250.759 176.583 249.801C176.108 247.66 180.178 253.41 180.4 253.66C187.622 261.791 195.171 269.694 202.5 277.742C204.029 279.421 208.462 284.566 207.202 282.676C204.978 279.341 202.343 276.295 200.138 272.934C197.003 268.155 194.329 263.077 191.471 258.131C189.491 254.704 187.715 250.686 184.618 248.093C184.036 247.606 183.065 246.29 182.256 246.195C180.228 245.957 178.274 243.438 176.773 242.21C176.106 241.664 174.833 239.64 174.833 240.502C174.833 240.92 176.464 242.192 176.731 242.399C179.493 244.548 182.272 246.615 184.828 249.021C201.243 264.47 215.588 282.371 228.943 300.474C238.967 314.062 248.103 328.303 258.17 341.847C258.469 342.249 261.514 346.277 259.372 344.757C256.691 342.854 254.333 340.334 252.223 337.84C245 329.303 238.776 319.751 232.907 310.258C227.6 301.673 222.8 292.787 217.471 284.215C213.981 278.6 210.092 273.248 206.654 267.599C204.527 264.105 202.433 260.96 199.716 257.941C196.918 254.832 190.564 243.939 192.884 247.418C193.705 248.649 194.627 249.648 195.667 250.708C200.39 255.518 204.639 260.904 208.784 266.207C224.229 285.969 237.59 307.321 252.202 327.697C256.327 333.45 260.117 339.392 264.158 345.178C264.992 346.371 266.785 349.629 264.369 346.823C254.418 335.262 248.562 321.017 240.625 308.128C235.428 299.689 229.782 291.397 223.65 283.604C220.476 279.57 217.16 275.447 214.814 270.867C213.083 267.486 212.019 263.678 209.585 260.703C208.724 259.651 207.609 258.816 206.738 257.751C205.743 256.535 205.238 254.621 204.482 253.217C204.302 252.883 203.58 250.281 204.65 251.298C205.653 252.251 206.43 253.596 207.244 254.693C211.593 260.552 216.122 266.172 220.149 272.28C234.668 294.295 246.216 318.323 263.399 338.43C264.674 339.922 266.431 340.987 267.638 342.395C268.153 342.996 266.794 341.054 266.33 340.413C261.5 333.724 257.596 326.418 253.594 319.22C246.545 306.543 239.438 294.027 231.515 281.875C229.314 278.498 226.868 275.257 224.936 271.711C223.735 269.505 222.72 267.236 221.267 265.174C218.591 261.375 215.24 258.109 212.621 254.25C211.982 253.308 210.766 250.244 210.766 251.383C210.766 252.407 212.545 253.822 213.106 254.504C216.529 258.659 219.982 262.762 223.523 266.818C243.346 289.522 259.049 315.578 276.009 340.413C276.421 341.015 280.32 345.942 278.329 343.196C268.549 329.706 260.994 315.16 252.35 300.916C245.83 290.173 238.346 279.656 232.907 268.295C230.828 263.95 229.513 259.151 226.476 255.326C224.708 253.1 222.748 251.155 221.351 248.641C221.021 248.046 219.903 247.284 219.833 248.473C219.749 249.904 220.558 250.661 221.394 251.762C224.294 255.586 227.541 259.121 230.461 262.917C232.393 265.429 235.767 268.093 236.829 271.162C237.06 271.828 234.155 269.664 234.004 269.56C230.3 267.015 227.076 264.019 223.882 260.872C221.309 258.337 218.668 255.55 215.869 253.259C214.862 252.435 214.58 252.329 215.721 253.47C223.722 261.471 231.902 269.399 240.33 276.94C241.092 277.622 239.684 271.615 239.571 271.162C238.44 266.639 238.452 261.081 236.344 256.865C235.752 255.681 233.313 253.787 231.979 253.787C231.825 253.787 231.262 253.869 231.262 253.597C231.262 253.035 233.574 255.842 233.582 255.853C242.208 268.36 249.92 281.637 257.664 294.696C263.727 304.921 270.412 314.668 276.726 324.724C279.291 328.808 282.077 333.135 284.17 337.482C284.893 338.984 285.998 340.275 286.553 341.847C286.663 342.157 283.188 339.018 282.968 338.768C277.163 332.161 272.343 324.578 267.575 317.217C259.241 304.353 250.874 291.148 244.21 277.32C243.252 275.331 242.488 273.359 241.658 271.331C241.137 270.057 241.618 271.071 242.143 271.795C248.219 280.176 253.922 288.664 258.929 297.732C261.821 302.97 264.093 308.555 266.984 313.758C269.863 318.941 261.42 303.268 259.14 297.795C255.018 287.905 251.636 277.504 246.74 267.957C244.241 263.083 241.508 257.455 237.673 253.407C237.315 253.029 235.815 251.261 236.808 252.606C239.608 256.394 242.019 260.528 244.505 264.52C250.677 274.428 256.995 284.25 263.252 294.105C270.635 305.735 278.6 317.08 285.119 329.236C286.026 330.928 286.851 332.657 287.734 334.361C287.779 334.447 288.431 335.764 288.261 335.689C286.404 334.864 284.713 331.385 283.727 329.869C278.071 321.166 273.417 311.86 268.882 302.54C262.613 289.658 257.029 276.445 250.663 263.613C247.458 257.155 244.566 249.672 239.423 244.529C237.872 242.978 241.312 249.17 241.426 249.358C251.231 265.402 262.151 280.78 272.256 296.636C278.847 306.977 285.203 317.376 290.56 328.414C291.367 330.078 292.075 331.803 292.9 333.454C293.62 334.894 292.993 333.963 292.31 332.885C288.324 326.595 285.479 319.517 282.546 312.704C277.62 301.257 273.158 289.611 268.038 278.248C263.492 268.156 258.336 258.607 252.476 249.232C249.628 244.675 247.014 240.396 244.906 235.441C244.15 233.665 243.763 231.809 242.987 230.064C242.605 229.204 242.004 228.071 241.469 227.301C239.156 223.976 242.591 235.354 243.746 239.236C246.589 248.794 249.641 258.36 253.193 267.683C255.09 272.663 257.72 276.997 260.995 281.2C266.305 288.012 270.676 295.5 275.862 302.414C281.53 309.971 287.503 317.517 291.93 325.905C294.302 330.399 296.636 335.047 298.488 339.78C300.412 344.697 296.479 337.163 296 336.322C284.927 316.881 279.904 294.679 268.924 275.253C264.801 267.959 260.086 260.993 256.145 253.597C253.298 248.252 251.008 242.627 248.343 237.191C244.658 229.673 240.414 221.65 238.622 213.405C238.062 210.828 239.281 213.301 239.655 214.396C241.891 220.936 244.878 227.248 247.246 233.754C251.968 246.725 257.468 259.484 262.746 272.238C268.041 285.035 273.421 297.751 279.362 310.258C281.357 314.458 283.409 318.495 285.794 322.489C286.748 324.086 287.472 326.54 288.915 327.802C289.849 328.62 288.125 325.442 287.586 324.323C282.032 312.787 278.2 300.365 274.66 288.095C267.302 262.592 261.576 236.881 250.072 212.835C246.879 206.161 239.985 185.216 241.11 192.528C241.292 193.713 241.908 194.891 242.396 195.966C244.502 200.597 246.545 205.23 248.301 210.01C252.697 221.977 255.635 234.357 259.772 246.406C261.635 251.83 263.715 257.181 265.529 262.622C268.506 271.554 256.429 246.102 252.729 237.444C250.359 231.897 247.853 226.419 245.349 220.933C244.42 218.899 243.062 216.876 242.312 214.775C240.653 210.13 247.936 222.942 249.988 227.428C258.346 245.702 263.051 265.337 270.864 283.794C274.955 293.458 280.149 302.432 284.718 311.84C286.393 315.287 287.831 318.863 289.294 322.404C289.516 322.941 290.834 325.353 290.813 325.146C290.692 324 289.174 322.542 288.577 321.687C282.89 313.546 279.059 304.303 275.567 295.054C269.891 280.026 265.232 264.646 259.393 249.675C256.524 242.319 253.342 235.009 251.232 227.385C250.131 223.408 250.024 218.825 248.216 215.071C247.935 214.487 245.706 209.962 246.719 211.507C266.162 241.133 278.51 274.355 293.976 306.041C295.652 309.475 296.957 313.108 298.952 316.373C301.168 320 295.108 312.937 294.925 312.683C288.555 303.881 283.493 293.859 278.962 284.026C271.091 266.946 264.823 249.143 258.423 231.476C254.659 221.089 249.945 210.492 247.542 199.677C247.456 199.29 246.066 195.142 246.066 196.746C246.066 199.936 248.58 203.633 249.925 206.34C254.202 214.957 258.797 223.386 263.315 231.877C275.067 253.968 306.451 322.175 296.422 299.25C295.254 296.581 293.346 294.182 292.057 291.554C287.489 282.241 284.315 272.216 280.627 262.538C276.312 251.209 272.243 239.432 266.879 228.545C264.135 222.978 260.288 217.637 258.254 211.739C258.118 211.343 257.368 209.349 257.685 209.714C267.065 220.538 274.543 233.191 281.619 245.563C292.468 264.534 302.643 283.995 312.975 303.257C316.63 310.07 320.235 316.913 323.793 323.775C325.569 327.201 322.455 323.449 321.6 322.362C313.776 312.411 306.304 302.191 299.037 291.828C296.853 288.713 294.57 285.522 292.795 282.149C292.105 280.838 291.653 279.223 290.834 277.995C289.585 276.122 292.584 282.143 293.554 284.173C298.358 294.227 303.013 304.355 307.767 314.433C309.847 318.843 311.894 323.267 313.882 327.718C313.998 327.978 315.486 330.89 314.936 331.134C313.964 331.566 311.516 328.401 311.056 327.929C307.521 324.303 304.466 320.281 301.651 316.078C299.466 312.815 297.368 309.478 295.431 306.062C294.347 304.152 293.512 302.033 292.141 300.305C291.36 299.32 290.885 298.11 290.096 297.163C288.854 295.673 292.024 300.529 293.006 302.203C298.756 312.006 304.305 321.893 309.622 331.936C310.641 333.859 313.19 337.925 309.243 334.846C302.594 329.658 295.947 324.092 290.728 317.428C289.664 316.069 284.092 308.81 286.89 306.758C287.946 305.983 289.869 306.154 291.066 306.251C295.213 306.589 299.1 308.298 302.579 310.511C307.134 313.407 310.726 317.377 314.114 321.519C314.471 321.955 314.409 321.98 314.008 321.476C311.262 318.025 309.079 314.344 306.965 310.469C297.903 293.854 291.37 275.848 287.101 257.414C286.451 254.605 285.75 251.776 285.52 248.894C285.491 248.533 285.789 249.568 285.92 249.907C286.79 252.154 287.909 254.3 289.041 256.422C294.911 267.429 301.998 277.827 307.261 289.15C307.939 290.61 308.536 292.196 309.411 293.557C309.563 293.793 307.236 289.985 306.881 289.424C298.785 276.605 293.051 261.844 287.186 247.882C285.307 243.411 283.68 238.184 280.965 234.112C280.307 233.125 279.924 232.102 279.13 231.308C278.743 230.92 277.781 230.485 277.528 230.042C277.438 229.885 276.742 228.635 277.254 229.115C278.145 229.95 278.76 231.267 279.383 232.278C281.11 235.077 282.921 237.818 284.697 240.586C294.93 256.534 304.127 273.496 312.448 290.52C315.189 296.127 318.315 301.827 319.955 307.896C320.601 310.288 317.53 306.904 317.298 306.631C308.432 296.213 303.206 281.849 298.678 269.138C297.196 264.978 295.658 260.819 294.313 256.612C293.847 255.155 293.146 253.528 293.09 251.973C293.087 251.894 293.09 251.183 293.09 251.383C293.09 253.923 294.569 256.803 295.473 259.079C297.486 264.152 299.837 269.072 302.2 273.988C303.828 277.377 305.249 281.051 307.345 284.194C308.457 285.863 306.52 280.279 306.501 280.23C304.001 273.426 301.797 266.636 300.007 259.607C298.55 253.887 297.5 247.76 294.84 242.442C294.402 241.565 293.577 239.766 294.756 241.83C301.582 253.776 307.269 266.131 311.815 279.133C312.895 282.222 314.093 285.217 315.316 288.243C315.377 288.394 315.479 288.857 315.379 288.728C314.652 287.783 313.99 286.706 313.418 285.67C306.868 273.806 302.416 260.807 296.021 248.831C294.075 245.186 292.096 241.629 290.053 238.056C289.93 237.84 289.512 237.717 289.379 238.013C288.643 239.648 289.587 243.154 289.843 244.719C290.98 251.691 293.731 258.187 296.633 264.583C298.273 268.2 300.027 271.751 302.326 275C304.769 278.452 301.095 268.944 300.934 268.59C296.503 258.824 292.144 248.853 287.27 239.3C286.913 238.601 285.069 235.407 285.963 234.513C287.341 233.134 295.272 248.316 295.62 248.979C298.896 255.213 302.118 261.504 304.899 267.978C306.41 271.496 307.485 275.166 308.969 278.69C310.775 282.981 306.003 273.608 305.827 273.187C301.09 261.908 298.893 249.321 297.476 237.212C297.145 234.386 295.892 226.051 296.949 228.693C298.003 231.328 299.644 233.774 301.019 236.242C305.844 244.903 310.47 253.708 314.219 262.896C316.049 267.381 317.875 272.017 319.196 276.687C319.406 277.429 320.138 279.423 318.732 278.205C312.434 272.756 309.397 262.311 307.176 254.714C304.798 246.582 302.899 238.23 301.061 229.958C300.46 227.252 300.531 232.893 300.555 233.079C302.061 244.595 304.886 255.989 307.345 267.325C309.251 276.112 311.109 284.949 313.587 293.599C313.752 294.176 315.053 297.468 315.042 297.332C314.508 290.662 312.818 284.117 312.343 277.404C311.482 265.255 311.472 253.199 308.673 241.303C307.656 236.981 306.926 232.015 303.802 228.651C302.69 227.453 300.681 224.295 300.681 222.535C300.681 221.472 301.323 224.569 301.778 225.53C304.46 231.189 307.684 236.575 310.381 242.231C313.504 248.777 317.919 255.934 319.238 263.191C319.298 263.521 319.333 264.299 318.816 263.782C316.962 261.928 316.177 258.937 315.653 256.486C313.084 244.462 313.587 231.841 313.587 219.625C313.587 218.444 314.482 212.786 313.017 211.907C312.915 211.846 312.828 215.849 312.828 216.041C312.828 221.017 312.828 225.994 312.828 230.97C312.828 234.218 312.828 237.465 312.828 240.713C312.828 241.254 313.178 243.344 312.743 243.833C312.468 244.144 311.796 242.007 311.773 241.936C310.919 239.274 310.443 236.469 309.791 233.754C309.717 233.444 306.771 220.886 305.046 223.99C304.354 225.237 304.857 227.743 304.857 229.115C304.857 231.439 305.068 233.569 306.375 230C308.627 223.853 310.731 217.677 313.165 211.591C314.346 208.639 313.805 209.868 313.376 212.076C312.386 217.167 309.791 232.403 309.791 227.217" stroke="#2553F5" stroke-width="3" stroke-linecap="round"/>
<path d="M109 326.084C113.364 326.084 117.62 326.139 121.948 326.843C125.528 327.426 129.073 328.189 132.66 328.741C132.931 328.783 136.794 329.549 135.802 328.657C130.573 323.951 124.84 319.727 119.544 315.077C118.766 314.393 117.591 312.924 116.465 312.799C115.327 312.673 118.394 314.037 119.396 314.592C130.01 320.467 141.025 325.53 151.955 330.786C155.822 332.646 167.144 338.713 163.574 336.332C157.188 332.075 150.746 327.693 144.595 323.111C142.067 321.227 139.231 320.019 136.709 318.197C134.717 316.759 133.843 314.44 132.533 312.42C132.308 312.073 131.574 310.379 131.099 310.311C129.941 310.145 132.805 311.92 133.735 312.63C136.545 314.775 139.705 316.513 142.845 318.113C148.48 320.984 153.955 323.912 159.398 327.138C163.871 329.79 177.742 336.775 172.831 335.067C169.966 334.071 167.142 330.506 164.965 328.53C161.32 325.22 157.67 321.956 154.169 318.493C151.869 316.218 149.301 312.842 146.577 311.091C145.695 310.524 144.791 309.991 144.384 309.003C144.024 308.128 145.981 309.547 145.987 309.552C150.704 313.011 155.621 316.018 160.706 318.914C166.935 322.463 172.962 326.2 178.925 330.175C182.035 332.248 185.132 334.507 188.435 336.269C188.714 336.418 191.113 338.013 191.451 337.787C191.803 337.553 190.844 337.198 190.523 336.923C189.154 335.753 187.745 334.642 186.348 333.507C179.91 328.279 173.645 322.773 167.327 317.396C165.334 315.7 163.332 313.731 161.001 312.504C159.466 311.696 158.562 310.528 157.585 309.088C157.527 309.003 156.571 308.023 156.994 307.949C157.665 307.832 158.897 308.731 159.314 308.982C162.379 310.83 165.338 312.865 168.36 314.781C175.308 319.185 182.281 323.544 189.363 327.729C194.769 330.923 200.041 334.531 205.79 337.092C206.915 337.593 214.379 341.107 209.818 338.125C202.103 333.081 194.957 327.453 188.014 321.403C184.458 318.304 180.29 315.814 177.322 312.124C175.061 309.313 173.421 306.806 170.553 304.512C169.361 303.558 168.881 304.892 169.815 305.292C175.067 307.543 180.105 310.971 185.104 313.748C192.021 317.591 199.156 321.031 205.917 325.156C207.772 326.289 209.671 327.417 211.399 328.741C212.136 329.306 213.162 330.271 211.463 329.1C202.281 322.774 194.268 314.108 186.137 306.515C182.428 303.052 179.125 299.406 175.888 295.508C175.246 294.734 174.699 293.775 173.906 293.146C173.749 293.021 172.43 292.154 172.43 292.155C172.43 292.883 174.269 294.177 174.687 294.643C177.404 297.68 179.833 300.867 182.721 303.774C190.014 311.115 197.952 317.409 206.359 323.427C211.748 327.284 216.737 331.636 222.048 335.531C222.383 335.776 223.342 337.049 223.777 337.049C223.914 337.049 223.652 336.798 223.545 336.712C222.026 335.486 220.785 333.935 219.581 332.41C210.195 320.525 202.72 307.297 193.665 295.17C190.074 290.36 185.615 286.44 181.962 281.759C179.297 278.345 177.325 274.552 174.286 271.426C171.611 268.675 170.246 265.548 168.613 262.148C167.796 260.445 167.714 258.306 166.884 256.813C165.301 253.964 164.797 259.426 164.797 260.629C164.797 275.032 176.226 286.651 185.673 296.098C195.539 305.964 206.975 314.385 214.731 326.126C215.745 327.661 216.399 329.206 217.177 330.85C217.353 331.22 217.952 332.458 217.008 331.588C211.55 326.549 206.996 320.279 202.29 314.57C194.084 304.619 185.893 294.576 178.503 283.994C175.936 280.318 173.583 276.555 171.545 272.565C171.079 271.653 170.559 270.145 169.815 269.402C169.152 268.739 170.527 271.139 170.954 271.974C173.326 276.615 176.263 281.012 179.115 285.365C187.516 298.187 195.92 311.037 202.711 324.819C203.137 325.682 206.611 334.088 205.115 333.802C203.231 333.442 201.081 332.083 199.464 331.187C194.469 328.42 189.66 325.26 185.04 321.909C179.141 317.63 173.512 312.896 168.065 308.055C167.199 307.285 165.267 304.87 163.89 304.87C163.12 304.87 164.34 306.247 164.354 306.262C167.476 309.615 170.521 312.973 173.442 316.51C176.173 319.817 179.039 323.121 181.329 326.759C181.669 327.299 184.476 330.967 182.383 330.491C176.871 329.238 171.331 325.821 166.146 323.617C159.926 320.972 153.598 318.469 147.505 315.54C147.042 315.318 140.356 312.536 143.288 313.432C146.556 314.431 149.642 316.21 152.672 317.755C156.275 319.592 160.015 321.35 163.489 323.427C163.735 323.574 165.934 324.755 165.767 325.325C165.361 326.704 157.939 325.23 157.142 325.072C152.843 324.22 148.728 322.912 144.785 321.002C143.093 320.182 141.498 319.077 139.745 318.493" stroke="#2553F5" stroke-width="3" stroke-linecap="round"/>
</svg>
