<svg width="296" height="296" viewBox="0 0 296 296" fill="none" xmlns="http://www.w3.org/2000/svg">
<path d="M100.267 309.198C96.003 314.071 76.6534 309.059 71.2757 308.401C53.6925 306.252 36.2399 302.899 18.7881 299.879C17.6173 299.676 -6.47104 295.353 5.1684 290.56C19.8043 284.534 35.4611 280.541 50.4081 275.348C68.587 269.031 87.4398 261.445 106.4 257.746C109.162 257.207 116.385 257.458 112.214 253.843C102.232 245.192 96.2127 234.867 90.9486 222.701C81.9941 202.006 74.9103 180.308 67.6119 158.983C63.8959 148.125 58.1639 137.378 56.1427 126.009C55.0657 119.951 62.548 126.105 64.7446 127.204C81.3335 135.498 100.885 137.471 118.666 142.177C135.801 146.713 154.263 151.122 170.516 158.346C174.489 160.111 173.354 154.471 173.384 152.292C173.628 134.22 177.755 116.242 180.552 98.4509C183.051 82.5564 185.987 66.7366 188.357 50.8218C188.501 49.8542 188.285 38.9619 191.225 41.9013C193.402 44.0789 194.837 47.6329 196.959 50.0253C207.022 61.3693 220.529 69.5532 232.482 78.6983C242.913 86.6792 252.644 95.0419 262.19 104.026C265.889 107.507 269.529 112.513 273.102 115.575C274.844 117.068 277.248 117.95 278.12 115.336C284.302 96.7896 300.428 78.8429 313.404 64.8397C343.661 32.1852 346.29 34.8989 380.166 6.04175C388.099 -0.715698 386.538 1.08214 386.538 10.8206C386.538 32.5504 399.858 52.8569 408.839 72.149C414.162 83.5826 419.721 95.6393 426.68 106.079" stroke="#F57C25" stroke-width="4" stroke-linecap="round"/>
<path d="M153.234 338.693C150.016 338.693 146.998 337.421 144.142 336.032C131.724 329.99 121.767 319.944 112.74 309.686C108.993 305.428 103.648 300.018 101.075 294.872C100.478 293.678 103.615 293.294 104.402 293.142C126.105 288.941 147.028 281.058 168.847 277.219C169.917 277.031 175.65 277.16 175.588 275.445C175.414 270.572 171.889 264.917 170.798 260.099C167.651 246.2 164.02 232.457 160.819 218.584C160.211 215.949 160.148 213.213 159.577 210.645C159.333 209.546 165.459 212.326 166.407 212.597C187.051 218.495 208.726 220.126 229.699 224.528C230.562 224.709 235.196 226.237 236.086 225.149C236.614 224.503 236.264 222.472 236.264 221.778V221.657C236.263 217.161 236.263 212.681 236.796 208.206C238.175 196.609 241.219 185.126 243.404 173.655C244.247 169.229 244.297 164.663 245.09 160.304C245.506 158.013 245.719 159.136 245.888 160.659C246.404 165.299 249.449 169.368 252.364 172.768C262.081 184.104 273.021 194.242 282.213 205.988C282.706 206.618 284.548 210.096 285.762 209.004C289.392 205.736 292.474 201.948 296.318 198.803C309.237 188.232 322.577 178.188 334.772 166.78C335.887 165.737 343.243 158.392 343.243 162.345C343.243 165.774 343.211 169.205 343.243 172.634C343.337 182.598 347.195 191.059 351.404 199.956C356.525 210.778 361.377 221.86 367.017 232.423C368.724 235.62 371.099 238.549 371.984 242.092M161 210.02C161 214.181 163.449 217.995 165.386 221.576C167.99 226.388 171.737 230.808 175.044 235.156C178.758 240.038 181.823 245.368 185.503 250.275C188.502 254.273 191.783 258.081 195.072 261.855M195.072 261.855C195.679 262.551 196.285 263.245 196.89 263.94C202.532 270.414 208.168 277.084 213.212 284.036C217.12 289.423 221.445 295.206 224.008 301.412C224.36 302.264 226.322 304.822 224.24 303.014C218.777 298.27 214.279 291.672 210.154 285.828C204.709 278.114 199.781 270.046 195.072 261.855ZM195.072 261.855C192.443 257.282 189.883 252.671 187.338 248.061C181.298 237.12 174.231 226.757 167.474 216.283C166.241 214.372 165.397 212.32 164.037 210.484C163.412 209.641 162.24 209.116 161.464 208.417C160.268 207.341 162.327 208.353 162.792 208.818C167.606 213.631 172.155 218.711 176.499 223.967M176.499 223.967C182.825 231.62 188.717 239.646 194.36 247.766C205.135 263.27 215.672 279.103 227.467 293.862C231.138 298.456 234.985 303.161 237.968 308.244C238.127 308.515 239.298 310.509 238.959 310.585C237.858 310.829 236.457 309.259 235.817 308.666C230.881 304.082 226.322 298.877 222.195 293.567C213.038 281.784 203.911 269.232 196.574 256.222C192.717 249.382 189.27 242.631 184.723 236.231C182.522 233.134 179.736 230.341 177.87 227.016C177.305 226.011 176.866 224.994 176.499 223.967ZM176.499 223.967C175.6 221.457 175.126 218.885 174.285 216.262C174.115 215.733 173.201 214.281 173.779 214.596C179.671 217.81 185.599 221.064 190.93 225.175M190.93 225.175C191.736 225.796 192.529 226.437 193.306 227.101C206.635 238.486 216.847 254.095 226.244 268.727C231.716 277.247 236.807 286.053 241.469 295.043C241.743 295.572 246.825 304.439 246.572 304.511C245.793 304.734 244.645 303.369 244.252 302.972C240.398 299.079 236.968 294.634 233.498 290.404C224.831 279.843 218.166 267.422 208.615 257.635C199.926 248.732 190.948 240.207 184.133 229.758C182.217 226.82 180.186 223.923 178.545 220.817C178.068 219.914 176.796 218.759 176.583 217.801C176.108 215.66 180.178 221.41 180.4 221.66C187.622 229.791 195.171 237.694 202.5 245.742C204.029 247.421 208.462 252.566 207.202 250.676C204.978 247.341 202.343 244.295 200.138 240.934C197.003 236.155 194.329 231.077 191.471 226.131C191.289 225.816 191.11 225.497 190.93 225.175ZM190.93 225.175C189.992 223.486 189.068 221.704 187.991 220.051M187.991 220.051C187.029 218.576 185.944 217.204 184.618 216.093C184.036 215.606 183.065 214.29 182.256 214.195C181.892 214.152 181.53 214.036 181.172 213.867M187.991 220.051C186.945 219.031 185.891 218.021 184.828 217.021C183.649 215.911 182.423 214.873 181.172 213.867M187.991 220.051C199.809 231.582 210.558 244.347 220.658 257.466M181.172 213.867C180.132 213.374 179.131 212.432 178.222 211.554M181.172 213.867C180.2 213.083 179.213 212.319 178.222 211.554M178.222 211.554C177.706 211.054 177.219 210.575 176.773 210.21C176.106 209.664 174.833 207.64 174.833 208.502C174.833 208.92 176.464 210.192 176.731 210.399C177.228 210.786 177.726 211.17 178.222 211.554ZM220.658 257.466C223.467 261.114 226.225 264.79 228.943 268.474C238.967 282.062 248.103 296.303 258.17 309.847C258.469 310.249 261.514 314.277 259.372 312.757C256.691 310.854 254.333 308.334 252.223 305.84C245 297.303 238.776 287.751 232.907 278.258C228.677 271.415 224.768 264.38 220.658 257.466ZM220.658 257.466C219.612 255.706 218.552 253.954 217.471 252.215C213.981 246.6 210.092 241.248 206.654 235.599C204.527 232.105 202.433 228.96 199.716 225.941C196.918 222.832 190.564 211.939 192.884 215.418C193.705 216.649 194.627 217.648 195.667 218.708C200.39 223.518 204.639 228.904 208.784 234.207C223.269 252.741 235.922 272.674 249.492 291.889M249.492 291.889C250.391 293.162 251.294 294.431 252.202 295.697C256.327 301.45 260.117 307.392 264.158 313.178C264.992 314.371 266.785 317.629 264.369 314.823C258.374 307.858 253.865 299.919 249.492 291.889ZM249.492 291.889C246.607 286.59 243.78 281.252 240.625 276.128C235.428 267.689 229.782 259.397 223.65 251.604C220.476 247.57 217.16 243.447 214.814 238.867C213.083 235.486 212.019 231.678 209.585 228.703C208.724 227.651 207.609 226.816 206.738 225.751C205.743 224.535 205.238 222.621 204.482 221.217C204.302 220.883 203.58 218.281 204.65 219.298C205.653 220.251 206.43 221.596 207.244 222.693C211.593 228.552 216.122 234.172 220.149 240.28C234.668 262.295 246.216 286.323 263.399 306.43C264.674 307.922 266.431 308.987 267.638 310.395C268.153 310.996 266.794 309.054 266.33 308.413C261.5 301.724 257.596 294.418 253.594 287.22C246.545 274.543 239.438 262.027 231.515 249.875C229.314 246.498 226.868 243.257 224.936 239.711C223.735 237.505 222.72 235.236 221.267 233.174C218.591 229.375 215.24 226.109 212.621 222.25C212.515 222.093 212.392 221.876 212.261 221.63M212.261 221.63C211.609 220.401 210.766 218.434 210.766 219.383C210.766 220.069 211.565 220.931 212.261 221.63ZM212.261 221.63C212.603 221.974 212.921 222.279 213.106 222.504C216.529 226.659 219.982 230.762 223.523 234.818C243.346 257.522 259.049 283.578 276.009 308.413C276.421 309.015 280.32 313.942 278.329 311.196C268.549 297.706 260.994 283.16 252.35 268.916C246.497 259.273 239.869 249.812 234.639 239.759M234.639 239.759C234.171 238.859 233.714 237.955 233.27 237.046M234.639 239.759C228.205 233.803 221.91 227.659 215.721 221.47C214.58 220.329 214.862 220.435 215.869 221.259C218.668 223.55 221.309 226.337 223.882 228.872C226.864 231.809 229.871 234.615 233.27 237.046M234.639 239.759C236.524 241.503 238.42 243.232 240.33 244.94C241.092 245.622 239.684 239.615 239.571 239.162C238.905 236.5 238.636 233.479 238.097 230.584M233.27 237.046C233.148 236.796 233.027 236.545 232.907 236.295C232.128 234.667 231.456 232.975 230.761 231.295M233.27 237.046C233.513 237.219 233.757 237.39 234.004 237.56C234.155 237.664 237.06 239.828 236.829 239.162C235.82 236.247 232.725 233.696 230.761 231.295M230.761 231.295C229.601 228.491 228.375 225.718 226.476 223.326C224.708 221.1 222.748 219.155 221.351 216.641C221.021 216.046 219.903 215.284 219.833 216.473C219.749 217.904 220.558 218.661 221.394 219.762C224.294 223.586 227.541 227.121 230.461 230.917C230.558 231.043 230.658 231.169 230.761 231.295ZM238.097 230.584C237.72 228.561 237.212 226.6 236.344 224.865C235.752 223.681 233.313 221.787 231.979 221.787C231.928 221.787 231.83 221.796 231.722 221.798M238.097 230.584C236.617 228.32 235.114 226.074 233.582 223.853C233.577 223.845 232.397 222.413 231.722 221.798M238.097 230.584C244.948 241.069 251.296 251.956 257.664 262.696C257.88 263.061 258.098 263.427 258.317 263.791M231.722 221.798C231.511 221.802 231.262 221.778 231.262 221.597C231.262 221.436 231.452 221.551 231.722 221.798ZM258.317 263.791C264.205 273.619 270.638 283.028 276.726 292.724C279.291 296.808 282.077 301.135 284.17 305.482C284.893 306.984 285.998 308.275 286.553 309.847C286.663 310.157 283.188 307.018 282.968 306.768C277.163 300.161 272.343 292.578 267.575 285.217C259.241 272.353 250.874 259.148 244.21 245.32C243.252 243.331 242.488 241.359 241.658 239.331C241.137 238.057 241.618 239.071 242.143 239.795C248.219 248.176 253.922 256.664 258.929 265.732C259.304 266.411 259.668 267.096 260.025 267.786M258.317 263.791C258.588 264.461 258.862 265.13 259.14 265.795C259.375 266.361 259.677 267.036 260.025 267.786M258.317 263.791C254.658 254.759 251.483 245.383 247.108 236.681M260.025 267.786C261.101 269.863 262.106 271.978 263.115 274.088M260.025 267.786C260.872 269.609 261.995 271.875 263.115 274.088M263.115 274.088C264.353 276.679 265.598 279.263 266.984 281.758C268.842 285.102 265.987 279.766 263.115 274.088ZM247.108 236.681C246.986 236.439 246.864 236.198 246.74 235.957C244.241 231.083 241.508 225.455 237.673 221.407C237.315 221.029 235.815 219.261 236.808 220.606C239.608 224.394 242.019 228.528 244.505 232.52C245.37 233.908 246.238 235.295 247.108 236.681ZM247.108 236.681C252.446 245.182 257.872 253.631 263.252 262.105C265.274 265.291 267.34 268.455 269.408 271.621M269.408 271.621C274.89 280.011 280.386 288.41 285.119 297.236C286.026 298.928 286.851 300.657 287.734 302.361C287.779 302.447 288.431 303.764 288.261 303.689C286.404 302.864 284.713 299.385 283.727 297.869C278.289 289.503 273.778 280.578 269.408 271.621ZM269.408 271.621C269.233 271.261 269.057 270.9 268.882 270.54C262.802 258.044 257.365 245.238 251.234 232.77M251.234 232.77C251.044 232.384 250.854 231.998 250.663 231.613C247.458 225.155 244.566 217.672 239.423 212.529C237.872 210.978 241.312 217.17 241.426 217.358C244.601 222.552 247.892 227.677 251.234 232.77ZM251.234 232.77C251.903 233.79 252.575 234.809 253.248 235.827M253.248 235.827C259.595 245.426 266.077 254.941 272.256 264.636C273.252 266.199 274.243 267.764 275.226 269.332M253.248 235.827C253.23 235.779 253.211 235.731 253.193 235.683C249.641 226.36 246.589 216.794 243.746 207.236C242.591 203.354 239.156 191.976 241.469 195.301C242.004 196.071 242.605 197.204 242.987 198.064C243.763 199.809 244.15 201.665 244.906 203.441C247.014 208.396 249.628 212.675 252.476 217.232C253.225 218.43 253.963 219.632 254.689 220.837M253.248 235.827C255.141 240.747 257.752 245.038 260.995 249.2C266.178 255.85 270.467 263.142 275.492 269.917M275.226 269.332C275.52 269.8 275.812 270.268 276.104 270.736M275.226 269.332C270.876 259.719 266.786 250.002 262.746 240.238C260.074 233.781 257.345 227.323 254.689 220.837M275.226 269.332C275.315 269.527 275.403 269.722 275.492 269.917M276.104 270.736C278.7 274.904 281.234 279.099 283.656 283.36M276.104 270.736C276.023 270.629 275.942 270.521 275.862 270.414C275.738 270.248 275.615 270.083 275.492 269.917M276.104 270.736C277.783 272.971 279.486 275.206 281.165 277.463M283.656 283.36C283.692 283.422 283.728 283.485 283.763 283.548M283.656 283.36C284.87 286.394 286.173 289.387 287.586 292.323C288.125 293.442 289.849 296.62 288.915 295.802C287.472 294.54 286.748 292.086 285.794 290.489C283.409 286.495 281.357 282.458 279.362 278.258C278.046 275.488 276.758 272.707 275.492 269.917M283.656 283.36C283.538 283.065 283.421 282.771 283.305 282.475M283.763 283.548C286.154 287.76 288.435 292.037 290.56 296.414C291.367 298.078 292.075 299.803 292.9 301.454C293.62 302.894 292.993 301.963 292.31 300.885C288.876 295.466 286.289 289.463 283.763 283.548ZM283.763 283.548C283.61 283.19 283.458 282.832 283.305 282.475M283.305 282.475C283.052 281.883 282.8 281.293 282.546 280.704C282.082 279.625 281.622 278.545 281.165 277.463M283.305 282.475C282.738 281.034 282.19 279.584 281.658 278.127M281.165 277.463C276.773 267.065 272.675 256.54 268.038 246.248C264.074 237.447 259.644 229.058 254.689 220.837M281.165 277.463C281.33 277.684 281.494 277.906 281.658 278.127M254.689 220.837C252.788 216.194 250.924 211.536 249.145 206.854M281.658 278.127C281.889 278.439 282.119 278.751 282.349 279.064M281.658 278.127C281.414 277.457 281.173 276.786 280.936 276.113M282.349 279.064C284.057 281.39 285.729 283.746 287.312 286.153M282.349 279.064C284.178 282.743 286.218 286.31 288.577 289.687C288.71 289.877 288.888 290.097 289.086 290.336M282.349 279.064C281.864 278.088 281.393 277.104 280.936 276.113M287.312 286.153C287.522 286.472 287.729 286.791 287.935 287.111M287.312 286.153C287.891 287.553 288.481 288.948 289.086 290.336M287.312 286.153C286.537 284.278 285.782 282.393 285.037 280.504M287.935 287.111C289.359 289.323 290.704 291.581 291.93 293.905C294.302 298.399 296.636 303.047 298.488 307.78C300.412 312.697 296.479 305.163 296 304.322C293.417 299.787 291.163 295.101 289.086 290.336M287.935 287.111C287.013 284.889 286.068 282.673 285.037 280.504M287.935 287.111C288.391 288.209 288.842 289.308 289.294 290.404C289.333 290.498 289.406 290.65 289.499 290.835M289.086 290.336C289.217 290.494 289.357 290.662 289.499 290.835M285.037 280.504C281.321 271.067 277.881 261.508 273.59 252.348M285.037 280.504C284.932 280.282 284.826 280.06 284.718 279.84C282.406 275.079 279.934 270.43 277.526 265.747M273.59 252.348C272.145 249.264 270.604 246.226 268.924 243.253C268.608 242.693 268.287 242.135 267.965 241.579M273.59 252.348C273.943 253.597 274.3 254.847 274.66 256.095C275.587 259.308 276.534 262.531 277.526 265.747M273.59 252.348C268.15 233.111 263.432 213.808 256.261 195.242M267.965 241.579C267.052 240.005 266.116 238.445 265.171 236.889M267.965 241.579C269.876 247.155 271.784 252.733 273.797 258.275M267.965 241.579C266.351 236.87 264.735 232.162 263.052 227.477M265.171 236.889C262.097 231.828 258.928 226.82 256.145 221.597C253.587 216.796 251.479 211.768 249.145 206.854M265.171 236.889C263.234 231.374 261.409 225.816 259.528 220.279M265.171 236.889C266.934 241.909 268.79 246.893 270.864 251.794C271.792 253.985 272.776 256.141 273.797 258.275M249.145 206.854C248.881 206.298 248.614 205.744 248.343 205.191C244.658 197.673 240.414 189.65 238.622 181.405C238.062 178.828 239.281 181.301 239.655 182.396C241.891 188.936 244.878 195.248 247.246 201.754C247.867 203.457 248.5 205.157 249.145 206.854ZM280.936 276.113C279.724 272.683 278.599 269.219 277.526 265.747M280.936 276.113C278.961 271.84 277.226 267.447 275.567 263.054C274.966 261.465 274.377 259.871 273.797 258.275M277.526 265.747C276.255 263.273 275.001 260.79 273.797 258.275M256.261 195.242C254.385 190.384 252.341 185.577 250.072 180.835C246.879 174.161 239.985 153.216 241.11 160.528C241.292 161.713 241.908 162.891 242.396 163.966C244.502 168.597 246.545 173.23 248.301 178.01C249.354 180.875 250.323 183.765 251.245 186.667M256.261 195.242C254.639 192.358 252.969 189.499 251.245 186.667M256.261 195.242C256.867 196.319 257.467 197.4 258.06 198.483M251.245 186.667C254.173 195.887 256.626 205.242 259.772 214.406C261.635 219.83 263.715 225.181 265.529 230.622C266.779 234.372 265.375 232.061 263.052 227.477M251.245 186.667C249.778 184.259 248.271 181.872 246.719 179.507C245.706 177.962 247.935 182.487 248.217 183.071C250.024 186.825 250.131 191.408 251.232 195.385C253.342 203.009 256.524 210.319 259.393 217.675C260.661 220.925 261.873 224.195 263.052 227.477M263.052 227.477C262.01 225.421 260.783 222.908 259.528 220.279M259.528 220.279C256.915 214.808 254.179 208.837 252.729 205.444C250.425 200.051 247.993 194.724 245.558 189.391L245.349 188.933C244.42 186.899 243.062 184.876 242.312 182.775C240.653 178.13 247.936 190.942 249.988 195.428C253.688 203.518 256.673 211.875 259.528 220.279ZM289.499 290.835C289.937 291.706 290.831 293.317 290.813 293.146C290.737 292.423 290.105 291.576 289.499 290.835ZM258.06 198.483C271.453 222.936 281.738 248.969 293.976 274.041C294.099 274.293 294.22 274.547 294.34 274.802M258.06 198.483C258.182 198.814 258.303 199.146 258.423 199.476C264.823 217.143 271.091 234.946 278.962 252.026C282.415 259.52 286.177 267.124 290.591 274.214M258.06 198.483C254.849 189.74 251.038 180.849 248.567 171.804M294.34 274.802C295.848 278.008 297.103 281.348 298.952 284.373C301.168 288 295.108 280.937 294.925 280.683C293.41 278.589 291.969 276.427 290.591 274.214M294.34 274.802C293.269 274.531 292.177 274.342 291.066 274.251L291.009 274.247C290.877 274.236 290.737 274.225 290.591 274.214M294.34 274.802C294.885 274.939 295.425 275.099 295.959 275.277M290.591 274.214C289.406 274.126 287.815 274.079 286.89 274.758C284.092 276.81 289.664 284.069 290.728 285.428C295.947 292.092 302.594 297.658 309.243 302.846C313.19 305.925 310.641 301.859 309.622 299.936C305.221 291.623 300.661 283.417 295.959 275.277M248.567 171.804C248.192 170.432 247.848 169.056 247.542 167.677C247.456 167.29 246.066 163.142 246.066 164.746C246.066 167.021 247.346 169.555 248.567 171.804ZM248.567 171.804C249.058 172.707 249.539 173.565 249.925 174.34C254.202 182.957 258.797 191.386 263.315 199.877C269.202 210.943 280.015 233.58 288.081 250.538M288.081 250.538C290.274 255.148 292.263 259.338 293.896 262.762M288.081 250.538C289.307 253.592 290.612 256.608 292.057 259.554C292.595 260.651 293.241 261.708 293.896 262.762M288.081 250.538C285.43 243.935 283.148 237.155 280.627 230.538C276.312 219.209 272.243 207.432 266.879 196.545C264.135 190.978 260.288 185.637 258.254 179.739C258.118 179.343 257.368 177.349 257.685 177.714C267.065 188.538 274.543 201.191 281.619 213.563C283.187 216.306 284.742 219.059 286.285 221.821M293.896 262.762C298.247 271.887 300.062 275.57 296.422 267.25C295.741 265.695 294.81 264.232 293.896 262.762ZM286.285 221.821C295.414 238.158 304.137 254.78 312.975 271.257C316.63 278.07 320.235 284.913 323.793 291.775C325.569 295.201 322.455 291.449 321.6 290.362C313.776 280.411 306.304 270.191 299.037 259.828C298.269 258.734 297.49 257.63 296.724 256.512M286.285 221.821C286.54 223.023 286.825 224.22 287.101 225.414C289.548 235.981 292.739 246.407 296.724 256.512M286.285 221.821C285.94 220.192 285.652 218.552 285.52 216.894C285.491 216.533 285.789 217.568 285.92 217.907C286.79 220.154 287.909 222.3 289.041 224.422C291.236 228.537 293.6 232.567 295.976 236.592M296.724 256.512C295.311 254.448 293.946 252.337 292.795 250.149C292.105 248.838 291.653 247.223 290.834 245.995C289.585 244.122 292.584 250.143 293.554 252.173C298.358 262.227 303.013 272.355 307.767 282.433C307.805 282.515 307.844 282.596 307.882 282.678M296.724 256.512C299.691 264.034 303.098 271.378 306.965 278.469C308.828 281.884 310.745 285.149 313.054 288.239M307.882 282.678C309.922 287.006 311.931 291.349 313.882 295.718C313.998 295.978 315.486 298.89 314.936 299.134C313.964 299.566 311.516 296.401 311.056 295.929C307.521 292.303 304.466 288.281 301.651 284.078C299.741 281.226 297.898 278.317 296.17 275.348M307.882 282.678C306.248 281.143 304.499 279.732 302.579 278.511C300.569 277.233 298.423 276.123 296.17 275.348M307.882 282.678C309.724 284.407 311.421 286.293 313.054 288.239M296.17 275.348C295.921 274.92 295.675 274.492 295.431 274.062C294.347 272.152 293.512 270.033 292.141 268.305C291.36 267.32 290.885 266.11 290.096 265.163C288.854 263.673 292.024 268.529 293.006 270.203C293.996 271.891 294.981 273.583 295.959 275.277M296.17 275.348C296.1 275.324 296.029 275.3 295.959 275.277M313.054 288.239C313.41 288.663 313.763 289.09 314.114 289.519C314.471 289.955 314.409 289.98 314.008 289.476C313.683 289.067 313.365 288.655 313.054 288.239ZM295.976 236.592C298.336 240.59 300.707 244.584 302.934 248.651M295.976 236.592C299.009 243.339 302.29 249.963 306.095 256.162M295.976 236.592C292.884 229.711 290.05 222.701 287.186 215.882C285.945 212.929 284.814 209.647 283.407 206.585M302.934 248.651C304.461 251.441 305.92 254.265 307.261 257.15C307.846 258.409 308.37 259.761 309.065 260.983M302.934 248.651C303.924 251.168 304.971 253.684 306.095 256.162M302.934 248.651C301.405 244.765 300.011 240.88 298.678 237.138C298.567 236.827 298.457 236.517 298.345 236.206M309.065 260.983C309.176 261.178 309.291 261.369 309.411 261.557C309.453 261.622 309.307 261.38 309.065 260.983ZM309.065 260.983C308.429 259.94 307.138 257.831 306.881 257.424C306.617 257.005 306.355 256.585 306.095 256.162M306.095 256.162C309.132 262.855 312.732 269.266 317.298 274.631C317.53 274.904 320.601 278.288 319.955 275.896C318.784 271.565 316.857 267.421 314.853 263.365M283.407 206.585C282.683 205.011 281.887 203.495 280.965 202.112C280.307 201.125 279.924 200.102 279.13 199.308C278.996 199.174 278.793 199.034 278.575 198.89M283.407 206.585C282.052 204.492 280.693 202.402 279.383 200.278C279.12 199.85 278.857 199.368 278.575 198.89M283.407 206.585C283.838 207.251 284.269 207.918 284.697 208.586C286.999 212.173 289.248 215.812 291.447 219.491M278.575 198.89C278.162 198.618 277.693 198.332 277.528 198.042C277.438 197.885 276.742 196.635 277.254 197.115C277.768 197.596 278.19 198.239 278.575 198.89ZM291.447 219.491C292.345 220.993 293.234 222.502 294.115 224.017M291.447 219.491C290.771 217.277 290.219 215.024 289.843 212.719C289.823 212.599 289.799 212.467 289.772 212.325M291.447 219.491C292.816 223.975 294.69 228.302 296.633 232.583C297.185 233.801 297.751 235.012 298.345 236.206M294.115 224.017C294.211 224.182 294.307 224.347 294.402 224.512M294.115 224.017C294.184 224.218 294.25 224.417 294.313 224.612C295.558 228.505 296.968 232.357 298.345 236.206M294.115 224.017C293.67 222.72 293.138 221.32 293.09 219.973C293.087 219.894 293.09 219.183 293.09 219.383C293.09 221.035 293.716 222.831 294.402 224.512M294.402 224.512C296.232 227.667 298.025 230.848 299.784 234.047M294.402 224.512C294.771 225.415 295.157 226.284 295.473 227.079C297.486 232.152 299.837 237.072 302.2 241.988C302.478 242.568 302.751 243.157 303.022 243.75M299.784 234.047C301.465 237.106 303.115 240.183 304.734 243.271M299.784 234.047C300.167 234.896 300.55 235.744 300.934 236.59C301.072 236.894 303.801 243.949 303.022 243.75M299.784 234.047C296.514 226.805 293.256 219.481 289.772 212.325M304.734 243.271C307.386 248.332 309.956 253.423 312.448 258.52C312.658 258.95 312.87 259.38 313.084 259.81M304.734 243.271C305.304 244.926 305.894 246.577 306.501 248.23C306.52 248.279 308.457 253.863 307.345 252.194C305.608 249.589 304.335 246.619 303.022 243.75M304.734 243.271C302.955 238.114 301.362 232.929 300.007 227.607C299.668 226.277 299.351 224.925 299.031 223.566M313.084 259.81C313.668 260.99 314.264 262.174 314.853 263.365M313.084 259.81C311.886 255.474 310.832 251.096 309.838 246.705M313.084 259.81C313.249 260.407 313.416 261.004 313.587 261.599C313.752 262.176 315.053 265.468 315.042 265.332C314.989 264.675 314.925 264.02 314.853 263.365M314.853 263.365C314.49 260.097 313.904 256.852 313.376 253.595M298.345 236.206C299.516 238.558 300.801 240.845 302.326 243C302.671 243.488 302.894 243.717 303.022 243.75M299.031 223.566C298.913 223.065 298.794 222.563 298.674 222.06M299.031 223.566C297.912 221.36 296.77 219.166 295.62 216.979L295.598 216.937C295.235 216.244 292.021 210.117 289.363 206.049M299.031 223.566C299.953 225.383 300.858 227.208 301.739 229.045M298.674 222.06C297.718 218.068 296.653 214.067 294.84 210.442C294.402 209.565 293.577 207.766 294.756 209.83C296.36 212.637 297.901 215.467 299.379 218.322M298.674 222.06C299.648 224.071 300.584 226.101 301.502 228.141M298.674 222.06C297.822 220.3 296.942 218.555 296.021 216.831C294.075 213.186 292.096 209.629 290.053 206.056C289.93 205.84 289.512 205.717 289.379 206.013C289.373 206.025 289.368 206.037 289.363 206.049M299.379 218.322C302.295 223.954 304.966 229.687 307.392 235.543M299.379 218.322C299.973 221.618 300.669 224.903 301.502 228.141M299.379 218.322C298.591 213.945 297.984 209.548 297.476 205.212C297.145 202.386 295.892 194.051 296.949 196.693C297.997 199.313 299.624 201.745 300.994 204.198M307.392 235.543C308.97 239.352 310.445 243.213 311.815 247.133C312.14 248.062 312.475 248.982 312.819 249.897M307.392 235.543C307.376 235.47 307.361 235.397 307.345 235.325C305.108 225.013 302.569 214.654 300.994 204.198M307.392 235.543C308.198 239.261 308.997 242.988 309.838 246.705M312.819 249.897C313.618 252.026 314.46 254.127 315.316 256.243C315.377 256.394 315.479 256.857 315.379 256.728C314.652 255.783 313.99 254.706 313.418 253.67C313.404 253.645 313.39 253.62 313.376 253.595M312.819 249.897C312.986 251.133 313.177 252.364 313.376 253.595M312.819 249.897C312.617 248.406 312.449 246.909 312.343 245.404C312.122 242.292 311.958 239.187 311.788 236.088M313.376 253.595C312.13 251.334 310.96 249.033 309.838 246.705M309.838 246.705C306.898 240.606 304.287 234.329 301.502 228.141M301.502 228.141C301.58 228.442 301.659 228.744 301.739 229.045M289.363 206.049C288.711 207.57 289.454 210.639 289.772 212.325M289.363 206.049C287.818 203.683 286.461 202.014 285.963 202.513C285.069 203.407 286.913 206.601 287.27 207.3C288.119 208.963 288.952 210.64 289.772 212.325M301.739 229.045C302.837 231.336 303.897 233.645 304.899 235.978C306.41 239.496 307.485 243.166 308.969 246.69C310.775 250.981 306.003 241.608 305.827 241.187C304.183 237.272 302.844 233.2 301.739 229.045ZM300.994 204.198C301.002 204.213 301.011 204.227 301.019 204.242C301.867 205.764 302.708 207.291 303.54 208.823M300.994 204.198C300.838 203.159 300.691 202.12 300.555 201.079C300.531 200.893 300.46 195.252 301.061 197.958C301.864 201.573 302.679 205.203 303.54 208.823M303.54 208.823C306.122 213.577 308.609 218.387 310.891 223.291M303.54 208.823C304.65 213.487 305.837 218.136 307.176 222.714L307.2 222.796C308.378 226.825 309.787 231.642 311.788 236.088M310.891 223.291C312.059 225.8 313.173 228.333 314.219 230.896C316.049 235.381 317.875 240.017 319.196 244.687C319.406 245.429 320.138 247.423 318.732 246.205C315.788 243.658 313.556 240.018 311.788 236.088M310.891 223.291C311.308 227.541 311.553 231.808 311.788 236.088M310.891 223.291C310.432 218.606 309.765 213.942 308.673 209.303C308.333 207.858 308.025 206.341 307.649 204.837M307.649 204.837C307.183 202.97 306.612 201.121 305.745 199.451M307.649 204.837C305.851 201.431 303.983 198.061 302.294 194.602M307.649 204.837C308.591 206.619 309.513 208.411 310.381 210.231C311.684 212.962 313.212 215.8 314.646 218.706M305.745 199.451C305.482 198.945 305.191 198.455 304.869 197.986M305.745 199.451C305.114 200.55 304.916 199.478 304.869 197.986M305.745 199.451C305.919 199.147 306.128 198.676 306.375 198C306.802 196.836 307.223 195.67 307.642 194.504M304.869 197.986C304.547 197.519 304.194 197.072 303.802 196.651C303.376 196.192 302.819 195.446 302.294 194.602M304.869 197.986C304.86 197.706 304.857 197.412 304.857 197.115C304.857 195.743 304.354 193.237 305.046 191.99C305.794 190.646 306.77 192.24 307.642 194.504M302.294 194.602C301.446 193.24 300.681 191.621 300.681 190.535C300.681 189.472 301.323 192.569 301.778 193.53C301.948 193.888 302.12 194.245 302.294 194.602ZM314.646 218.706C316.649 222.767 318.469 226.962 319.238 231.191C319.298 231.521 319.333 232.299 318.816 231.782C316.962 229.928 316.177 226.937 315.653 224.486C315.244 222.573 314.913 220.645 314.646 218.706ZM314.646 218.706C313.231 208.457 313.587 197.898 313.587 187.625C313.587 186.545 314.334 181.727 313.345 180.235M313.345 180.235C313.256 180.101 313.153 179.993 313.035 179.918M313.345 180.235C313.356 180.181 313.366 180.128 313.376 180.076C313.805 177.868 314.346 176.639 313.165 179.591C313.121 179.7 313.078 179.809 313.035 179.918M313.345 180.235C313.207 180.951 313.04 181.849 312.854 182.85M313.035 179.918C313.029 179.914 313.023 179.911 313.017 179.907C313.005 179.9 312.992 179.954 312.98 180.055M313.035 179.918C313.016 179.964 312.998 180.009 312.98 180.055M312.98 180.055C312.927 180.497 312.882 181.842 312.854 182.85M312.98 180.055C311.082 184.836 309.38 189.672 307.642 194.504M312.854 182.85C312.837 183.479 312.828 183.976 312.828 184.041V208.713C312.828 209.254 313.178 211.344 312.743 211.833C312.474 212.137 311.826 210.101 311.776 209.943L311.773 209.936C310.919 207.274 310.443 204.469 309.791 201.754L309.785 201.729C309.693 201.342 308.751 197.381 307.642 194.504M312.854 182.85C311.685 189.17 309.791 199.648 309.791 195.217M109 294.084C113.364 294.084 117.62 294.139 121.948 294.843C125.528 295.426 129.073 296.189 132.66 296.741C132.931 296.783 136.794 297.549 135.802 296.657C130.573 291.951 124.84 287.727 119.544 283.077C119.282 282.847 118.976 282.529 118.642 282.202M118.642 282.202C117.981 281.558 117.212 280.882 116.465 280.799C115.544 280.697 117.378 281.571 118.642 282.202ZM118.642 282.202C118.939 282.351 119.205 282.486 119.396 282.592C130.01 288.467 141.025 293.53 151.955 298.786C155.822 300.646 167.144 306.713 163.574 304.332C157.188 300.075 150.746 295.693 144.595 291.111C142.067 289.227 139.231 288.019 136.709 286.197C134.717 284.759 133.843 282.44 132.533 280.42C132.432 280.263 132.227 279.832 131.988 279.4M131.988 279.4C131.699 278.875 131.36 278.348 131.099 278.311C130.425 278.215 131.112 278.775 131.988 279.4ZM131.988 279.4C132.618 279.85 133.346 280.333 133.735 280.63C136.545 282.775 139.705 284.513 142.845 286.113C146.975 288.217 151.018 290.351 155.026 292.612M155.026 292.612C156.488 293.436 157.944 294.276 159.398 295.138C161.44 296.349 165.44 298.462 168.718 300.239M155.026 292.612C155.727 292.778 156.432 292.931 157.142 293.072L157.147 293.073C157.584 293.159 159.862 293.611 161.968 293.812M155.026 292.612C151.488 291.772 148.077 290.597 144.785 289.002C143.093 288.182 141.498 287.077 139.745 286.493M168.718 300.239C172.621 302.356 175.5 303.996 172.831 303.067C171.426 302.579 170.031 301.473 168.718 300.239ZM168.718 300.239C167.352 298.957 166.075 297.537 164.965 296.53C163.965 295.622 162.965 294.718 161.968 293.812M161.968 293.812C159.376 291.457 156.803 289.092 154.304 286.626M161.968 293.812C163.84 293.991 165.576 293.972 165.767 293.325C165.934 292.755 163.735 291.574 163.489 291.427C160.755 289.793 157.857 288.356 154.99 286.922M154.304 286.626C154.271 286.594 154.239 286.562 154.206 286.53M154.304 286.626C154.533 286.725 154.761 286.824 154.99 286.922M154.304 286.626C152.017 285.636 149.745 284.617 147.505 283.54C147.042 283.318 140.356 280.536 143.288 281.432C146.556 282.431 149.642 284.21 152.672 285.755C153.181 286.014 153.693 286.272 154.206 286.53M154.206 286.53C154.194 286.518 154.181 286.505 154.169 286.493C151.869 284.218 149.301 280.842 146.577 279.091C145.695 278.524 144.791 277.991 144.384 277.003C144.024 276.128 145.981 277.547 145.987 277.552C150.704 281.011 155.621 284.018 160.706 286.914C165.944 289.898 171.039 293.015 176.073 296.295M154.206 286.53C154.467 286.661 154.729 286.792 154.99 286.922M176.073 296.295C177.026 296.916 177.976 297.542 178.925 298.175C182.035 300.248 185.132 302.507 188.435 304.269C188.714 304.418 191.113 306.013 191.451 305.787C191.803 305.553 190.844 305.198 190.523 304.923C189.154 303.753 187.745 302.642 186.348 301.507C185.138 300.525 183.935 299.532 182.736 298.533M176.073 296.295C178.166 297.218 180.277 298.013 182.383 298.491C182.521 298.523 182.638 298.536 182.736 298.533M176.073 296.295C172.689 294.804 169.35 292.979 166.146 291.617C162.442 290.042 158.699 288.517 154.99 286.922M182.736 298.533C177.554 294.215 172.458 289.763 167.327 285.396C165.334 283.7 163.332 281.731 161.001 280.504C159.466 279.696 158.562 278.528 157.585 277.088C157.527 277.003 156.571 276.023 156.994 275.949C157.665 275.832 158.897 276.731 159.314 276.982C162.379 278.83 165.338 280.865 168.36 282.781C170.899 284.391 173.442 285.994 175.992 287.585M182.736 298.533C184.116 298.496 181.646 295.263 181.329 294.759C179.747 292.245 177.89 289.891 175.992 287.585M175.992 287.585C180.419 290.348 184.869 293.073 189.363 295.729C194.769 298.923 200.041 302.531 205.79 305.092C206.915 305.593 214.379 309.107 209.818 306.125C207 304.282 204.258 302.362 201.574 300.372M175.992 287.585C175.143 286.554 174.286 285.532 173.442 284.51C170.521 280.973 167.476 277.615 164.354 274.262C164.34 274.247 163.12 272.87 163.89 272.87C165.267 272.87 167.199 275.285 168.065 276.055C173.512 280.896 179.141 285.63 185.04 289.909C189.66 293.26 194.469 296.42 199.464 299.187C200.101 299.54 200.82 299.964 201.574 300.372M201.574 300.372C196.91 296.913 192.421 293.243 188.014 289.403C184.458 286.304 180.29 283.814 177.322 280.124C175.791 278.221 174.545 276.457 173.009 274.804M201.574 300.372C202.733 300.998 203.973 301.584 205.115 301.802C206.611 302.088 203.137 293.682 202.711 292.819C202.353 292.091 201.99 291.366 201.622 290.643M173.009 274.804C172.277 274.016 171.479 273.253 170.553 272.512C169.361 271.558 168.881 272.892 169.815 273.292C170.888 273.752 171.953 274.261 173.009 274.804ZM173.009 274.804C177.124 276.917 181.126 279.538 185.104 281.748C190.571 284.786 196.175 287.571 201.622 290.643M201.622 290.643C203.066 291.457 204.5 292.292 205.917 293.156C206.331 293.409 206.747 293.661 207.163 293.916M201.622 290.643C201.171 289.755 200.713 288.872 200.25 287.991M207.163 293.916C208.611 294.802 210.057 295.713 211.399 296.741C212.136 297.306 213.162 298.271 211.463 297.1C210.001 296.093 208.57 295.027 207.163 293.916ZM207.163 293.916C204.798 292.048 202.502 290.051 200.25 287.991M200.25 287.991C197.952 285.889 195.7 283.721 193.468 281.556M200.25 287.991C199.935 287.394 199.618 286.797 199.297 286.203M193.468 281.556C191.011 279.174 188.579 276.796 186.137 274.515C182.428 271.052 179.125 267.406 175.888 263.508C175.246 262.734 174.699 261.775 173.906 261.146C173.749 261.021 172.43 260.155 172.43 260.155C172.43 260.883 174.269 262.177 174.687 262.643C177.404 265.68 179.833 268.867 182.721 271.774C186.165 275.241 189.754 278.475 193.468 281.556ZM193.468 281.556C195.379 283.142 197.323 284.687 199.297 286.203M199.297 286.203C201.611 287.978 203.966 289.714 206.359 291.427C211.748 295.284 216.737 299.636 222.048 303.531C222.383 303.776 223.342 305.049 223.777 305.049C223.914 305.049 223.652 304.798 223.545 304.712C222.026 303.486 220.785 301.935 219.581 300.41C210.195 288.525 202.72 275.297 193.665 263.17C190.074 258.36 185.615 254.44 181.962 249.759C179.297 246.345 177.325 242.552 174.286 239.426C171.611 236.675 170.246 233.548 168.613 230.148C167.796 228.445 167.714 226.306 166.884 224.813C165.301 221.964 164.797 227.426 164.797 228.629C164.797 243.032 176.226 254.651 185.673 264.098C186.055 264.48 186.439 264.859 186.825 265.237M199.297 286.203C195.44 279.038 191.202 272.094 186.825 265.237M186.825 265.237C188.706 267.077 190.636 268.872 192.579 270.654M186.825 265.237C184.286 261.259 181.7 257.311 179.115 253.365C176.263 249.012 173.326 244.615 170.954 239.974C170.527 239.139 169.152 236.739 169.815 237.402C170.559 238.145 171.079 239.653 171.545 240.565C173.583 244.555 175.936 248.318 178.503 251.994C182.961 258.378 187.71 264.565 192.579 270.654M192.579 270.654C200.545 277.962 208.737 285.052 214.731 294.126C215.745 295.661 216.399 297.206 217.177 298.85L217.189 298.875C217.378 299.272 217.931 300.44 217.008 299.588C211.55 294.549 206.996 288.279 202.29 282.57C199.034 278.622 195.781 274.659 192.579 270.654ZM103.378 296.818C104.083 297.296 104.788 297.774 105.492 298.253M105.492 298.253C112.02 302.689 118.521 307.13 125.393 311.035C126.543 311.688 127.776 312.318 129.031 312.959M105.492 298.253C105.741 298.589 105.961 298.89 106.14 299.094C106.419 299.413 106.706 299.727 106.999 300.034M105.492 298.253C104.756 297.257 103.774 295.945 102.918 295.897C101.24 295.804 106.066 299.282 106.625 299.733C106.75 299.833 106.875 299.933 106.999 300.034M129.031 312.959C132.305 314.631 135.734 316.377 138.255 318.808C140.859 321.318 144.46 322.391 147.102 324.893C149.46 327.127 145.678 325.531 144.622 325.021C141.122 323.334 137.721 321.54 134.398 319.637M129.031 312.959C130.593 314.87 132.446 317.182 134.398 319.637M129.031 312.959C128.303 312.068 127.638 311.265 127.055 310.574C122.337 304.982 104.76 292.011 111.305 295.284C122.898 301.081 133.451 310.053 142.704 318.961C147.322 323.407 151.533 328.248 156.102 332.743C157.266 333.888 158.974 336.462 160.628 337.013C161.287 337.233 159.467 334.958 159.426 334.916C156.561 332.005 153.56 329.288 150.784 326.274C142.678 317.473 133.842 309.369 125.777 300.551C124.907 299.6 123.546 297.977 122.172 296.336M134.398 319.637C131.211 317.812 128.095 315.887 125.03 313.859M134.398 319.637C136.293 322.02 138.281 324.537 140.188 326.952M125.03 313.859C121.962 311.828 118.944 309.694 115.958 307.455C112.874 305.142 109.677 302.839 106.999 300.034M125.03 313.859C119.049 309.216 112.908 304.775 106.999 300.034M125.03 313.859C129.019 316.955 132.937 320.14 136.669 323.564C137.854 324.65 139.032 325.782 140.188 326.952M140.188 326.952C143.474 330.276 146.587 333.905 149.198 337.678C153.15 343.386 147.222 335.861 140.188 326.952ZM122.172 296.336C119.315 292.924 116.405 289.435 117.748 291.755C118.536 293.115 119.88 294.274 121.021 295.309C121.402 295.655 121.785 295.997 122.172 296.336ZM122.172 296.336C126.61 300.229 131.403 303.721 136.03 307.378C146.49 315.645 177.209 341.101 167.864 331.592C159.661 323.245 151.199 315.168 142.576 307.25C138.778 303.763 134.947 300.311 131.3 296.665C130.25 295.615 129.27 294.474 128.247 293.38M128.247 293.38C127.435 292.512 126.597 291.675 125.675 290.937C124.504 290.001 126.215 291.562 126.339 291.678C126.961 292.263 127.598 292.829 128.247 293.38ZM128.247 293.38C132.321 296.837 136.895 299.688 141.425 302.494C158.285 312.938 175.334 323.147 192.548 333M192.548 333C192.86 333.179 193.172 333.357 193.485 333.536C193.633 333.62 194.954 334.172 194.61 334.047C193.894 333.787 193.208 333.426 192.548 333ZM192.548 333C190.54 331.705 188.766 329.81 187.092 328.32C176.016 318.45 165.167 308.344 153.75 298.863C151.671 297.137 149.204 294.454 146.897 293.136C146.073 292.665 147.816 293.181 148.022 293.315C156.204 298.622 164.337 303.896 172.774 308.81C178.226 311.986 183.683 315.151 189.136 318.322M189.136 318.322C193.71 320.982 198.28 323.646 202.843 326.325C204.904 327.535 207.023 328.676 209.113 329.863M189.136 318.322C186.232 316.117 183.328 313.912 180.393 311.751C174.123 307.132 167.777 302.634 161.291 298.331M189.136 318.322C193.383 321.547 197.63 324.771 201.974 327.859C204.308 329.519 207.098 331.844 209.951 332.615C210.779 332.839 210.579 332.194 210.284 331.695C209.917 331.074 209.524 330.465 209.113 329.863M209.113 329.863C211.133 331.01 213.126 332.2 215.014 333.536C215.072 333.576 216.091 334.243 215.832 334.021C212.765 331.392 209.98 328.211 207.164 325.328C205.593 323.719 204.011 322.114 202.414 320.522M209.113 329.863C207.582 327.62 205.81 325.488 204.275 323.282C203.641 322.371 203.022 321.45 202.414 320.522M202.414 320.522C198.589 316.711 194.673 312.977 190.594 309.446M202.414 320.522C200.661 317.844 199.003 315.102 197.359 312.352M190.594 309.446C187.281 306.579 183.86 303.846 180.293 301.316M190.594 309.446C192.858 310.39 195.113 311.358 197.359 312.352M190.594 309.446C181.759 305.761 172.793 302.425 163.773 299.145C163.27 298.962 162.341 298.684 161.291 298.331M180.293 301.316C176.704 298.77 172.966 296.429 169.04 294.363C166.456 293.003 163.798 291.942 161.012 291.09C160.742 291.008 160.246 290.767 159.9 290.59M180.293 301.316C173.535 297.837 166.797 294.325 160.117 290.707C160.035 290.663 159.963 290.624 159.9 290.59M180.293 301.316C185.319 303.903 190.355 306.471 195.385 309.049M159.9 290.59C159.499 290.385 159.301 290.267 159.9 290.59ZM195.385 309.049C199.019 310.912 202.649 312.78 206.269 314.665C211.424 317.349 216.687 319.895 221.739 322.771C222.586 323.253 225.285 324.426 225.728 325.532C226.126 326.528 223.775 324.645 222.787 324.228C215.817 321.285 209.09 317.755 202.23 314.563C200.611 313.81 198.988 313.074 197.359 312.352M195.385 309.049C196.044 310.149 196.701 311.252 197.359 312.352M195.385 309.049C192.331 303.952 189.211 298.903 185.507 294.261C185.422 294.154 183.259 291.549 184.075 292.139C187.797 294.826 191.105 298.078 194.866 300.756C204.366 307.52 214.364 313.65 224.577 319.268C224.597 319.279 225.259 319.597 225.884 319.928M161.291 298.331C159.158 297.615 156.527 296.593 155.949 295.437C155.704 294.947 157.074 295.575 157.534 295.872C158.792 296.684 160.044 297.504 161.291 298.331ZM225.884 319.928C226.467 320.237 227.017 320.557 226.981 320.649C226.817 321.057 226.253 320.282 225.884 319.928ZM225.884 319.928C225.856 319.901 225.83 319.877 225.805 319.856C223.945 318.298 222.091 316.734 220.23 315.177C214.502 310.382 208.731 305.636 202.843 301.037C196.872 296.372 190.366 292.391 184.587 287.485C182.46 285.68 180.451 283.726 178.501 281.732C176.79 279.982 179.069 281.521 179.728 282.039C190.621 290.589 201.601 299.071 212.15 308.043C215.424 310.827 218.563 313.846 222.02 316.404C223.407 317.431 224.976 318.217 226.265 319.37C230.336 323.013 218.758 311.43 215.065 307.404C207.263 298.898 199.321 290.102 192.309 280.914C191.411 279.738 193.006 281.44 193.178 281.579C200.18 287.214 208.034 291.88 215.296 297.176C225.014 304.264 233.995 312.099 243.013 320.035C245.398 322.134 247.983 325.584 250.811 327.092C251.471 327.444 250.359 325.63 249.891 325.047C245.684 319.801 241.585 314.453 237.209 309.347C230.742 301.803 223.663 294.964 216.932 287.715C216.386 287.127 219.816 290.199 219.975 290.323C228.567 297.081 237.315 303.643 245.851 310.472C250.97 314.567 255.915 318.867 261.065 322.924C261.196 323.028 264.937 325.929 264.849 325.532C264.603 324.426 262.682 323.118 261.96 322.387C257.702 318.084 253.74 313.513 249.84 308.887C246.382 304.785 242.895 300.694 239.535 296.511C238.487 295.206 235.928 292.834 235.547 291.116C235.365 290.301 236.893 292.118 237.464 292.727C242.417 297.999 247.895 302.799 253.01 307.915C257.186 312.091 261.107 316.442 265.079 320.802C265.745 321.533 266.816 323.028 267.687 322.592M315.554 264.6C315.554 265.312 315.546 266.024 315.537 266.738M315.537 266.738C315.519 268.293 315.499 269.852 315.554 271.402C315.565 271.701 315.73 272.487 316.219 272.348C316.93 272.145 316.27 269.474 316.168 269.1C315.951 268.314 315.741 267.526 315.537 266.738ZM315.537 266.738C312.2 253.831 310.474 240.712 308.292 227.525C308.136 226.578 308.013 225.238 307.841 223.771M307.841 223.771C307.469 220.603 306.867 216.843 305.198 215.175C304.6 214.576 305.468 216.852 305.735 217.655C306.418 219.702 307.121 221.739 307.841 223.771ZM307.841 223.771C310.382 230.946 313.12 238.04 315.81 245.167C318.352 251.904 321.067 258.831 323.283 265.855M323.283 265.855C324.607 270.054 325.752 274.287 326.574 278.536C326.611 278.724 326.664 278.946 326.725 279.174M323.283 265.855C324.233 270.343 325.336 274.794 326.725 279.174M323.283 265.855C322.473 262.031 321.774 258.18 321.102 254.321C319.875 247.262 318.589 240.23 317.651 233.124C317.325 230.66 317.103 228.175 316.773 225.707M326.725 279.174C327.04 280.363 327.547 281.735 326.856 279.584C326.812 279.447 326.768 279.311 326.725 279.174ZM316.773 225.707C316.535 223.93 316.24 222.162 315.81 220.416C314.593 215.483 312.601 209.869 312.332 204.768C312.268 203.54 312.476 202.307 312.102 201.111C311.128 197.996 311.992 204.162 312.076 204.819C312.859 210.921 314.636 216.91 316.091 222.871C316.321 223.816 316.549 224.761 316.773 225.707ZM316.773 225.707C319.586 237.584 321.899 249.553 324.248 261.532C325.945 270.191 327.686 278.824 329.719 287.408C330.187 289.384 330.331 287.721 330.282 286.488C330.132 282.686 328.948 278.935 328.492 275.16C327.714 268.719 327.387 262.184 327.222 255.669M327.222 255.669C327.157 253.092 327.118 250.518 327.086 247.955C326.933 235.646 328.208 222.482 325.449 210.342C324.238 205.014 323.522 199.667 322.918 194.233C322.628 191.625 322.15 189.604 320.947 187.696M327.222 255.669C325.6 245.445 324.102 235.201 322.458 224.968C320.518 212.899 318.234 200.882 316.321 188.812C316.223 188.192 315.282 180.806 316.705 183.366C317.566 184.917 318.851 185.127 319.962 186.359M327.222 255.669C327.405 256.822 327.59 257.976 327.776 259.128C328.408 263.036 330.501 274.689 330.282 270.737C330.042 266.415 329.23 262.105 328.952 257.773C328.255 246.915 328.441 236.021 328.441 225.147C328.441 223.655 328.44 222.174 328.433 220.699M320.947 187.696C320.713 187.323 320.45 186.955 320.156 186.588C320.092 186.508 320.028 186.432 319.962 186.359M320.947 187.696C320.99 187.678 321.033 187.658 321.077 187.636C323.128 186.611 325.499 183.607 326.14 181.525C326.821 179.312 328.901 176.085 328.901 180.17C328.901 180.337 328.904 180.503 328.909 180.668M320.947 187.696C319.905 188.136 319.452 187.299 319.962 186.359M319.962 186.359C319.967 186.35 319.972 186.341 319.977 186.332C321.088 184.358 323.273 183.436 324.657 181.755C328.869 176.64 332.118 168.411 338.106 165.084C338.511 164.859 340.817 163.193 340.817 164.317C340.817 165.395 339.779 166.803 338.611 168.109M328.433 220.699C328.393 212.605 328.163 204.718 326.856 196.637C326.81 196.356 325.308 189.919 325.219 192.239C324.847 201.906 326.438 211.326 328.433 220.699ZM328.433 220.699C329.255 224.563 330.147 228.419 330.998 232.28C331.608 235.05 332.158 237.821 332.638 240.596M332.638 240.596C334.065 248.838 334.884 257.119 334.884 265.521C334.884 269.984 335.836 274.786 336.828 279.124C336.927 279.558 337.258 282.031 336.725 280.3C332.888 267.829 332.644 253.959 332.638 240.596ZM332.638 240.596C332.636 236.647 332.655 232.742 332.609 228.931C332.59 227.389 332.572 225.844 332.553 224.298M332.553 224.298C332.42 213.637 332.214 202.876 331.061 192.296M332.553 224.298C333.539 231.058 334.558 237.801 335.396 244.503C335.899 248.526 336.518 252.517 337.186 256.497M332.553 224.298C330.958 213.364 329.447 202.382 328.927 191.446C328.78 188.374 328.544 185.021 328.921 181.838M331.061 192.296C331.032 192.03 331.003 191.763 330.972 191.497C330.575 187.999 329.255 184.98 328.96 181.523M331.061 192.296C330.146 188.742 329.077 185.483 328.921 181.838M331.061 192.296C331.109 192.481 331.156 192.666 331.202 192.852C333.244 201.017 334.317 209.328 335.447 217.655C337.186 230.471 337.186 243.476 337.186 256.4V256.497M328.96 181.523C328.936 181.241 328.919 180.956 328.909 180.668M328.96 181.523C328.946 181.628 328.933 181.732 328.921 181.838M328.96 181.523C329.116 180.337 329.362 179.177 329.733 178.067M328.909 180.668C328.962 179.789 329.268 178.918 329.733 178.067M328.909 180.668C328.904 180.757 328.901 180.847 328.901 180.937C328.901 181.24 328.908 181.54 328.921 181.838M338.611 168.109C338.293 168.465 337.965 168.814 337.645 169.146M338.611 168.109C338.646 167.303 338.682 166.458 338.464 165.749C338.154 164.742 337.646 167.949 337.646 168.382C337.646 168.637 337.646 168.891 337.645 169.146M338.611 168.109C338.594 168.506 338.577 168.894 338.592 169.252C338.815 174.711 339.335 180.193 339.743 185.642C340.535 196.232 340.592 207.107 342.606 217.552C343.884 224.175 345.503 230.939 345.93 237.676C346.425 245.465 347.331 253.298 349.014 260.936M337.645 169.146C336.913 169.907 336.226 170.582 335.805 171.067C335.15 171.82 334.29 172.659 333.4 173.561M337.645 169.146C337.613 183.109 336.725 196.999 336.725 210.981C336.725 214.502 336.802 218.049 336.956 221.611M333.4 173.561C332.038 174.94 330.606 176.468 329.733 178.067M333.4 173.561C332.924 169.386 330.627 175.789 330.052 177.204C329.936 177.488 329.83 177.776 329.733 178.067M333.4 173.561C333.4 173.565 333.401 173.569 333.401 173.573C333.718 176.385 333.471 179.29 333.529 182.113C333.651 188.035 334.195 193.957 334.68 199.858C335.273 207.084 335.99 214.381 336.956 221.611M337.186 256.497V256.674C337.186 262.643 337.935 268.608 339.001 274.47C339.115 275.098 339.526 275.597 340.049 276.004C340.471 276.332 340.366 274.946 340.28 274.419C339.297 268.423 338.187 262.473 337.186 256.497ZM336.956 221.611C337.305 224.224 337.686 226.828 338.106 229.417C339.606 238.667 340.191 248.083 341.076 257.426M336.956 221.611C337.471 233.56 338.849 245.666 341.076 257.426M341.076 257.426C341.125 257.943 341.175 258.459 341.226 258.975C341.56 262.355 342.59 265.457 343.483 268.625M341.076 257.426C341.791 261.2 342.593 264.939 343.483 268.625M343.483 268.625C343.646 269.205 343.805 269.788 343.955 270.375M343.483 268.625C343.531 268.826 343.58 269.027 343.629 269.228C343.719 269.597 343.83 269.981 343.955 270.375M343.955 270.375C344.231 271.465 344.475 272.57 344.652 273.703C344.928 275.469 345.826 277.096 345.93 278.868C345.948 279.168 346.34 279.514 346.34 279.021C346.34 276.36 344.815 273.102 343.955 270.375ZM349.014 260.936C349.337 262.404 349.689 263.865 350.073 265.316C350.947 268.625 351.453 271.773 351.453 275.186C351.453 279.541 349.595 266.657 349.152 262.325C349.105 261.862 349.059 261.399 349.014 260.936ZM349.014 260.936C347.704 247.49 347.311 233.917 347.311 220.416C347.311 213.552 346.455 206.754 346.391 199.91C346.374 198.172 346.291 194.98 346.199 192.163M346.199 192.163C346.072 188.259 345.93 185.075 345.93 187.483C345.93 189.045 346.032 190.605 346.199 192.163ZM346.199 192.163C346.754 197.332 348.028 202.476 348.692 207.606C350.132 218.737 351.663 229.841 353.235 240.946M353.235 240.946C353.712 244.313 354.192 247.681 354.675 251.048C355.856 259.284 359.529 283.958 357.897 275.8C357.603 274.329 356.861 272.954 356.516 271.478C355.222 265.941 354.756 260.172 354.215 254.526C353.782 250.008 353.493 245.478 353.235 240.946ZM353.235 240.946C352.812 233.513 352.471 226.075 351.709 218.678C351.549 217.123 351.306 214.327 351.126 211.778M351.126 211.778C350.857 207.966 350.727 204.709 351.223 206.992C351.608 208.763 351.693 210.596 351.856 212.418M351.126 211.778C351.375 212.005 351.619 212.217 351.856 212.418M351.126 211.778C350.932 211.6 350.734 211.412 350.533 211.211M351.856 212.418C351.94 213.352 352.044 214.282 352.22 215.2C353.555 222.159 355.156 229.091 356.874 235.962C359.098 244.857 361.16 253.894 362.704 262.938C362.927 264.243 362.96 268.225 362.96 266.902C362.96 260.005 360.662 252.872 359.968 245.986C359.186 238.229 357.897 230.507 357.897 222.718C357.897 222.528 357.903 222.328 357.914 222.14M351.856 212.418C353.438 213.762 354.74 214.675 355.596 217.195C356.194 218.956 357.015 220.573 357.914 222.14M357.914 222.14C357.968 221.227 358.143 220.562 358.357 222.385C358.383 222.601 358.409 222.817 358.437 223.033M357.914 222.14C358.086 222.439 358.26 222.737 358.437 223.033M358.437 223.033C359.544 231.648 362.437 239.78 364.494 248.185C365.464 252.148 366.348 256.194 367.076 260.202C367.574 262.939 366.369 254.674 365.721 251.969C364.414 246.511 364.134 241.013 363.42 235.477C363.417 235.453 362.705 232.009 363.318 232.485C363.444 232.584 363.563 232.709 363.676 232.856M358.437 223.033C359.884 225.462 361.457 227.81 362.602 230.439C362.896 231.115 363.262 231.937 363.676 232.856M363.676 232.856C364.068 233.369 364.38 234.15 364.644 234.995M363.676 232.856C363.977 233.524 364.302 234.243 364.644 234.995M364.644 234.995C365.083 236.4 365.392 237.985 365.721 238.826C366.994 242.079 368.512 245.865 370.324 248.849C373.117 253.45 368.079 242.557 364.644 234.995Z" stroke="#2553F5" stroke-width="3" stroke-linecap="round"/>
</svg>
