<svg width="212" height="195" viewBox="0 0 212 195" fill="none" xmlns="http://www.w3.org/2000/svg">
<path d="M77.6953 -16.7598C75.2354 -20.0636 62.7151 -17.8542 59.2723 -17.7067C48.0154 -17.2247 36.7811 -15.9729 25.5639 -14.9317C24.8114 -14.8618 9.32077 -13.3268 16.4611 -9.7049C25.4397 -5.15054 35.1675 -1.83473 44.385 2.20695C55.5956 7.12255 67.17 12.877 79.0071 16.1724C80.7315 16.6525 85.3242 16.8551 82.4984 18.9383C75.7356 23.9239 71.4016 30.1693 67.4544 37.6199C60.74 50.2937 55.1616 63.6973 49.4657 76.8537C46.5657 83.5523 42.3929 90.0796 40.5418 97.1876C39.5555 100.975 44.6082 97.4472 46.056 96.8608C56.9902 92.4323 69.4863 92.1607 80.9966 90.0668C92.089 88.0489 104.016 86.178 114.684 82.4115C117.292 81.4908 116.289 85.0106 116.199 86.3933C115.449 97.8652 117.165 109.471 118.048 120.892C118.836 131.096 119.906 141.274 120.611 151.484C120.654 152.105 119.972 159.001 121.983 157.284C123.473 156.012 124.56 153.831 126.026 152.42C132.975 145.731 141.949 141.218 149.986 136.018C157 131.48 163.59 126.665 170.092 121.446C172.612 119.424 175.171 116.432 177.59 114.67C178.769 113.81 180.338 113.371 180.76 115.072C183.751 127.142 193.077 139.329 200.603 148.858C218.154 171.08 219.957 169.491 239.992 189.485C244.683 194.167 243.784 192.949 244.271 186.774C245.36 172.995 254.823 160.787 261.484 149.003C265.431 142.02 269.56 134.654 274.496 128.383" stroke="#F57C25" stroke-width="4" stroke-linecap="round"/>
<path d="M112.758 -32.8093C110.717 -32.9705 108.74 -32.3152 106.859 -31.5773C98.6826 -28.3685 91.8664 -22.4972 85.6284 -16.4446C83.0392 -13.9323 79.3792 -10.7697 77.49 -7.63549C77.0516 -6.90822 79.0213 -6.50805 79.5126 -6.37206C93.0642 -2.62145 105.936 3.42535 119.579 6.95197C120.248 7.12489 123.89 7.33015 123.765 8.41456C123.41 11.496 120.892 14.9053 119.959 17.9054C117.267 26.5608 114.277 35.0931 111.552 43.7294C111.034 45.3701 110.857 47.1014 110.367 48.7013C110.157 49.3862 114.18 47.9303 114.796 47.806C128.181 45.0999 142.006 45.1513 155.526 43.4106C156.082 43.339 159.097 42.6024 159.606 43.3367C159.909 43.7724 159.585 45.0431 159.55 45.483L159.544 45.5596C159.319 48.4102 159.094 51.251 159.208 54.1155C159.502 61.538 160.857 68.9716 161.668 76.3548C161.981 79.2034 161.784 82.1007 162.068 84.9045C162.217 86.3782 162.408 85.677 162.592 84.7195C163.151 81.8034 165.286 79.3759 167.304 77.366C174.034 70.6641 181.478 64.7842 187.895 57.7964C188.24 57.4216 189.582 55.3085 190.296 56.0617C192.435 58.3155 194.199 60.8721 196.479 63.0588C204.142 70.4085 212.097 77.4454 219.258 85.29C219.913 86.007 224.21 91.0329 224.408 88.5266C224.58 86.352 224.731 84.1748 224.923 82.0019C225.482 75.6889 228.351 70.5172 231.466 65.0865C235.255 58.4812 238.887 51.6971 242.992 45.2819C244.234 43.34 245.887 41.6014 246.626 39.3997M111.238 49.169C111.446 46.5308 113.19 44.2349 114.598 42.0614C116.49 39.1403 119.087 36.5251 121.402 33.9341C124.001 31.0245 126.212 27.7983 128.791 24.8709C130.893 22.486 133.164 20.2361 135.439 18.0077M135.439 18.0077C135.858 17.5969 136.277 17.1868 136.696 16.7768C140.597 12.9544 144.505 9.00705 148.051 4.85164C150.799 1.63176 153.832 -1.81877 155.768 -5.62537C156.033 -6.14794 157.406 -7.67213 155.995 -6.62995C152.293 -3.89524 149.111 0.0632071 146.202 3.56196C142.363 8.18075 138.835 13.0496 135.439 18.0077ZM135.439 18.0077C133.543 20.7755 131.688 23.5712 129.843 26.3668C125.466 33.002 120.466 39.2191 115.656 45.5221C114.779 46.672 114.141 47.9308 113.186 49.027C112.748 49.5303 111.979 49.8044 111.452 50.2085C110.639 50.8312 111.996 50.2928 112.314 50.021C115.607 47.2099 118.746 44.2168 121.764 41.102M121.764 41.102C126.158 36.5658 130.296 31.7716 134.281 26.9057C141.89 17.6145 149.364 8.10266 157.582 -0.665334C160.14 -3.39437 162.815 -6.18496 164.961 -9.25844C165.076 -9.42242 165.918 -10.6283 165.707 -10.693C165.021 -10.9033 164.054 -9.97801 163.619 -9.63359C160.259 -6.97422 157.108 -3.90257 154.225 -0.742173C147.828 6.27067 141.412 13.7727 136.109 21.6548C133.32 25.7985 130.797 29.9067 127.593 33.737C126.042 35.5906 124.136 37.222 122.786 39.2369C122.378 39.8463 122.048 40.469 121.764 41.102ZM121.764 41.102C121.068 42.6484 120.639 44.2556 119.974 45.8766C119.84 46.2032 119.187 47.0785 119.57 46.9075C123.467 45.1647 127.389 43.398 130.975 41.0587M130.975 41.0587C131.517 40.705 132.052 40.3382 132.578 39.9565C141.6 33.4046 148.857 24.019 155.548 15.2117C159.444 10.0829 163.114 4.7545 166.52 -0.712847C166.72 -1.03456 170.387 -6.40228 170.23 -6.46087C169.747 -6.64087 168.951 -5.83297 168.682 -5.60095C166.043 -3.32553 163.646 -0.678368 161.233 1.82957C155.209 8.09237 150.361 15.6343 143.814 21.3619C137.859 26.5721 131.739 31.5277 126.894 37.8123C125.533 39.5788 124.099 41.3142 122.903 43.2018C122.556 43.75 121.692 44.419 121.509 45.0156C121.1 46.3497 123.969 42.9073 124.122 42.7599C129.108 37.9658 134.291 33.3327 139.341 28.5969C140.395 27.6084 143.464 24.568 142.57 25.7036C140.993 27.7071 139.169 29.5063 137.603 31.5273C135.376 34.4003 133.426 37.4866 131.366 40.4797C131.235 40.6698 131.105 40.8631 130.975 41.0587ZM130.975 41.0587C130.296 42.0823 129.621 43.166 128.855 44.16M128.855 44.16C128.171 45.0473 127.414 45.8631 126.518 46.501C126.125 46.7805 125.443 47.5663 124.925 47.5861C124.692 47.5951 124.457 47.6508 124.221 47.7402M128.855 44.16C128.14 44.7544 127.422 45.3423 126.698 45.9233C125.894 46.568 125.065 47.1645 124.221 47.7402M128.855 44.16C136.926 37.4407 144.381 29.8847 151.442 22.0722M124.221 47.7402C123.537 48.0007 122.855 48.5474 122.235 49.059M124.221 47.7402C123.566 48.1881 122.901 48.6234 122.235 49.059M122.235 49.059C121.883 49.3499 121.55 49.6295 121.249 49.8387C120.799 50.1512 119.89 51.3709 119.933 50.8246C119.954 50.5594 121.052 49.8347 121.232 49.7162C121.566 49.496 121.901 49.2774 122.235 49.059ZM151.442 22.0722C153.406 19.8996 155.339 17.7071 157.247 15.5073C164.283 7.39333 170.79 -1.17903 177.851 -9.26288C178.061 -9.50326 180.193 -11.9045 178.759 -11.0479C176.964 -9.97569 175.343 -8.49597 173.88 -7.0202C168.872 -1.96899 164.447 3.77652 160.251 9.50171C157.225 13.629 154.395 17.8939 151.442 22.0722ZM151.442 22.0722C150.691 23.1356 149.931 24.1934 149.159 25.2419C146.664 28.6278 143.93 31.8268 141.467 35.2365C139.944 37.345 138.458 39.2347 136.584 41.0129C134.655 42.8439 130.08 49.4331 131.725 47.3429C132.307 46.6033 132.942 46.0163 133.655 45.3964C136.89 42.583 139.854 39.3804 142.748 36.2256C152.861 25.1986 161.883 13.1932 171.45 1.68932M171.45 1.68932C172.083 0.927272 172.72 0.167428 173.359 -0.589786C176.263 -4.03103 178.963 -7.60913 181.815 -11.0756C182.404 -11.7903 183.704 -13.7663 182.032 -12.108C177.881 -7.99178 174.625 -3.18339 171.45 1.68932ZM171.45 1.68932C169.355 4.90458 167.295 8.14785 165.038 11.2387C161.32 16.3293 157.325 21.3047 153.046 25.9391C150.831 28.3376 148.522 30.7859 146.805 33.5727C145.538 35.6296 144.673 37.9913 142.98 39.7556C142.382 40.3796 141.633 40.8533 141.027 41.485C140.336 42.206 139.919 43.3942 139.37 44.2467C139.239 44.4499 138.651 46.0634 139.381 45.472C140.064 44.9182 140.624 44.1039 141.195 43.4491C144.246 39.9523 147.399 36.615 150.259 32.944C160.567 19.712 169.094 5.05444 180.996 -6.83485C181.879 -7.71686 183.047 -8.30405 183.882 -9.13633C184.239 -9.49158 183.28 -8.32859 182.954 -7.94493C179.556 -3.94557 176.715 0.491565 173.816 4.85508C168.712 12.5406 163.579 20.1208 157.947 27.4294C156.381 29.4605 154.668 31.393 153.266 33.5448C152.394 34.8829 151.636 36.2712 150.612 37.506C148.724 39.7808 146.436 41.6837 144.583 43.9992C144.507 44.0937 144.418 44.225 144.323 44.3747M144.323 44.3747C143.848 45.121 143.215 46.3261 143.262 45.7247C143.297 45.2896 143.847 44.7832 144.323 44.3747ZM144.323 44.3747C144.557 44.1737 144.774 43.9964 144.903 43.8631C147.281 41.3993 149.676 38.9708 152.125 36.5761C165.831 23.1732 177.093 7.43754 189.091 -7.46017C189.382 -7.82145 192.101 -10.7503 190.702 -9.10898C183.824 -1.04484 178.305 7.80002 172.111 16.3988C167.917 22.2203 163.24 27.8874 159.42 34.0002M159.42 34.0002C159.079 34.5471 158.744 35.0975 158.417 35.652M159.42 34.0002C155.042 37.4543 150.743 41.0352 146.509 44.6492C145.728 45.3158 145.912 45.2624 146.592 44.7903C148.482 43.4783 150.296 41.8433 152.054 40.3647C154.092 38.6514 156.139 37.0227 158.417 35.652M159.42 34.0002C160.703 32.9883 161.992 31.9874 163.289 30.9997C163.806 30.6057 162.612 34.344 162.518 34.6254C161.962 36.2804 161.64 38.1824 161.153 39.9909M158.417 35.652C158.327 35.8044 158.238 35.9571 158.149 36.1101C157.573 37.1032 157.063 38.1421 156.538 39.1728M158.417 35.652C158.579 35.5542 158.743 35.4578 158.908 35.3627C159.009 35.3043 160.959 34.0773 160.78 34.4881C159.994 36.2863 157.903 37.7484 156.538 39.1728M156.538 39.1728C155.662 40.8927 154.746 42.5895 153.421 44.0112C152.189 45.3343 150.849 46.4694 149.837 47.9931C149.598 48.3539 148.851 48.781 148.866 48.0241C148.884 47.1123 149.436 46.6727 150.02 46.0163C152.051 43.7372 154.287 41.6582 156.329 39.3972C156.396 39.3225 156.466 39.2477 156.538 39.1728ZM161.153 39.9909C160.813 41.2548 160.393 42.4731 159.756 43.5293C159.321 44.2509 157.68 45.3297 156.834 45.2629C156.801 45.2603 156.74 45.2495 156.672 45.2428M161.153 39.9909C160.102 41.3525 159.036 42.7011 157.954 44.0328C157.95 44.0376 157.13 44.8866 156.672 45.2428M161.153 39.9909C166.023 33.6855 170.593 27.1001 175.169 20.6094C175.325 20.3883 175.481 20.1676 175.638 19.9473M156.672 45.2428C156.538 45.2296 156.379 45.2326 156.37 45.3473C156.362 45.4492 156.488 45.3856 156.672 45.2428ZM175.638 19.9473C179.864 14.0107 184.414 8.36702 188.76 2.52379C190.591 0.0623469 192.574 -2.54173 194.119 -5.19288C194.653 -6.10907 195.418 -6.87266 195.849 -7.84134C195.934 -8.03299 193.573 -6.21642 193.421 -6.06871C189.41 -2.17006 185.974 2.3966 182.581 6.82552C176.653 14.565 170.686 22.5186 165.768 30.9534C165.061 32.1662 164.478 33.3788 163.85 34.6229C163.456 35.405 163.812 34.7859 164.181 34.3531C168.453 29.3433 172.494 24.2469 176.123 18.7474C176.395 18.3355 176.66 17.9193 176.921 17.5001M175.638 19.9473C175.844 19.5361 176.051 19.1261 176.26 18.7178C176.438 18.3708 176.663 17.958 176.921 17.5001M175.638 19.9473C172.865 25.4914 170.383 31.2777 167.173 36.5764M176.921 17.5001C177.707 16.2371 178.45 14.9463 179.196 13.6587M176.921 17.5001C177.55 16.3864 178.375 15.0061 179.196 13.6587M179.196 13.6587C180.111 12.0778 181.029 10.5019 182.034 8.98881C183.379 6.96185 181.301 10.2023 179.196 13.6587ZM167.173 36.5764C167.083 36.7236 166.994 36.8704 166.903 37.0168C165.074 39.9824 163.06 43.414 160.425 45.7887C160.179 46.0106 159.139 47.0562 159.837 46.2535C161.802 43.9917 163.537 41.4913 165.314 39.0844C165.932 38.2473 166.552 37.4114 167.173 36.5764ZM167.173 36.5764C170.983 31.4535 174.847 26.3675 178.683 21.2637C180.125 19.3449 181.593 17.4419 183.063 15.5383M183.063 15.5383C186.959 10.4926 190.865 5.44253 194.308 0.0827245C194.968 -0.944494 195.577 -1.99978 196.222 -3.03548C196.255 -3.08828 196.735 -3.89075 196.623 -3.85145C195.405 -3.4212 194.158 -1.30031 193.457 -0.38811C189.59 4.64445 186.282 10.0773 183.063 15.5383ZM183.063 15.5383C182.934 15.7579 182.804 15.9776 182.675 16.1973C178.194 23.8161 174.105 31.6643 169.593 39.263M169.593 39.263C169.453 39.4981 169.313 39.733 169.173 39.9677C166.818 43.902 164.609 48.5023 161.09 51.5056C160.029 52.4116 162.52 48.6573 162.602 48.544C164.875 45.4095 167.219 42.3251 169.593 39.263ZM169.593 39.263C170.069 38.6495 170.546 38.0369 171.024 37.425M171.024 37.425C175.528 31.6566 180.116 25.9477 184.519 20.1101C185.229 19.1687 185.936 18.2262 186.637 17.2811M171.024 37.425C171.009 37.4546 170.995 37.4842 170.981 37.5138C168.262 43.2478 165.848 49.1606 163.566 55.0782C162.64 57.4819 159.891 64.5246 161.525 62.5322C161.903 62.071 162.34 61.3823 162.626 60.8566C163.205 59.7884 163.544 58.6311 164.112 57.5431C165.697 54.5067 167.568 51.9244 169.603 49.1776C170.138 48.4551 170.666 47.7302 171.186 47.0025M171.024 37.425C172.47 34.4006 174.34 31.8103 176.606 29.3338C180.225 25.3769 183.31 20.9674 186.835 16.9232M186.637 17.2811C186.847 16.9992 187.056 16.717 187.264 16.4345M186.637 17.2811C183.397 23.1587 180.318 29.115 177.266 35.1041C175.249 39.0643 173.195 43.0226 171.186 47.0025M186.637 17.2811C186.703 17.1618 186.769 17.0425 186.835 16.9232M187.264 16.4345C189.119 13.9219 190.936 11.3886 192.685 8.80841M187.264 16.4345C187.208 16.4987 187.151 16.5629 187.095 16.6271C187.008 16.7255 186.921 16.8242 186.835 16.9232M187.264 16.4345C188.441 15.1015 189.632 13.7698 190.81 12.4228M192.685 8.80841C192.711 8.77046 192.737 8.7325 192.763 8.69453M192.685 8.80841C193.607 6.9456 194.583 5.1127 195.626 3.32174C196.024 2.63945 197.276 0.710483 196.643 1.18206C195.665 1.91022 195.083 3.43031 194.398 4.39526C192.686 6.80791 191.182 9.26496 189.707 11.8283C188.734 13.5191 187.778 15.2178 186.835 16.9232M192.685 8.80841C192.596 8.98922 192.507 9.17031 192.418 9.35168M192.763 8.69453C194.489 6.14321 196.15 3.54571 197.716 0.876676C198.312 -0.137877 198.847 -1.19636 199.453 -2.20178C199.982 -3.07884 199.537 -2.51977 199.05 -1.87033C196.601 1.39319 194.66 5.07022 192.763 8.69453ZM192.763 8.69453C192.648 8.91381 192.533 9.13289 192.418 9.35168M192.418 9.35168C192.228 9.71435 192.039 10.0762 191.849 10.4368C191.5 11.0976 191.154 11.7597 190.81 12.4228M192.418 9.35168C191.987 10.2371 191.566 11.129 191.156 12.0261M190.81 12.4228C187.505 18.7961 184.379 25.2645 180.924 31.5584C177.969 36.9405 174.74 42.0379 171.186 47.0025M190.81 12.4228C190.926 12.2907 191.041 12.1585 191.156 12.0261M171.186 47.0025C169.748 49.8514 168.333 52.7114 166.971 55.591M191.156 12.0261C191.318 11.84 191.48 11.6536 191.641 11.4669M191.156 12.0261C190.968 12.4387 190.782 12.8524 190.597 13.2671M191.641 11.4669C192.841 10.0772 194.019 8.66753 195.144 7.22008M191.641 11.4669C192.985 9.22591 194.457 7.06615 196.123 5.04276C196.216 4.92907 196.34 4.79876 196.478 4.65692M191.641 11.4669C191.285 12.0616 190.937 12.662 190.597 13.2671M195.144 7.22008C195.292 7.02884 195.44 6.83694 195.586 6.64434M195.144 7.22008C195.581 6.3615 196.024 5.50668 196.478 4.65692M195.144 7.22008C194.558 8.37051 193.985 9.52769 193.418 10.6885M195.586 6.64434C196.6 5.31299 197.566 3.9482 198.46 2.53647C200.189 -0.194489 201.902 -3.02511 203.313 -5.93322C204.779 -8.95456 201.908 -4.37416 201.562 -3.86499C199.697 -1.11874 198.033 1.7393 196.478 4.65692M195.586 6.64434C194.89 8.00708 194.18 9.3647 193.418 10.6885M195.586 6.64434C195.93 5.971 196.271 5.29642 196.613 4.62406C196.642 4.56637 196.696 4.47389 196.764 4.36127M196.478 4.65692C196.569 4.56294 196.666 4.4639 196.764 4.36127M193.418 10.6885C190.589 16.4863 187.929 22.3752 184.749 27.9685M193.418 10.6885C193.34 10.824 193.262 10.9591 193.182 11.0938C191.478 13.9964 189.678 16.8205 187.916 19.6697M184.749 27.9685C183.679 29.8513 182.55 31.7005 181.335 33.5015C181.106 33.8408 180.876 34.1786 180.643 34.5154M184.749 27.9685C185.036 27.1939 185.324 26.4196 185.615 25.6458C186.364 23.655 187.126 21.6586 187.916 19.6697M184.749 27.9685C180.337 39.8941 176.378 51.8972 170.901 63.3107M180.643 34.5154C179.985 35.4672 179.314 36.4099 178.637 37.3489M180.643 34.5154C182.134 31.0748 183.623 27.6335 185.178 24.2205M180.643 34.5154C179.384 37.4204 178.124 40.3248 176.822 43.211M178.637 37.3489C176.434 40.404 174.174 43.4211 172.148 46.5935C170.285 49.5097 168.697 52.5924 166.971 55.591M178.637 37.3489C177.132 40.7488 175.697 44.1816 174.226 47.5987M178.637 37.3489C180.006 34.2544 181.432 31.1871 182.993 28.1834C183.691 26.8402 184.423 25.5223 185.178 24.2205M166.971 55.591C166.775 55.9304 166.578 56.2686 166.379 56.6055C163.665 61.188 160.573 66.0629 159.023 71.2011C158.539 72.8068 159.436 71.2996 159.728 70.6244C161.473 66.5891 163.684 62.7363 165.511 58.73C165.99 57.6808 166.477 56.6347 166.971 55.591ZM190.597 13.2671C189.657 15.3816 188.77 17.5213 187.916 19.6697M190.597 13.2671C189.131 15.878 187.811 18.5761 186.539 21.2788C186.079 22.2565 185.625 23.2373 185.178 24.2205M187.916 19.6697C186.986 21.1745 186.066 22.6864 185.178 24.2205M170.901 63.3107C169.468 66.2967 167.931 69.2423 166.255 72.1356C163.896 76.2078 158.476 89.1437 159.556 84.5631C159.731 83.8211 160.18 83.1046 160.543 82.448C162.11 79.6167 163.638 76.7814 164.991 73.8386C165.802 72.0743 166.561 70.2908 167.291 68.4964M170.901 63.3107C169.728 65.0577 168.526 66.7873 167.291 68.4964M170.901 63.3107C171.34 62.6579 171.774 62.0028 172.204 61.3454M167.291 68.4964C169.609 62.7969 171.633 56.9877 174.087 51.3347C175.54 47.9886 177.127 44.7 178.55 41.3407C179.53 39.0255 178.524 40.4205 176.822 43.211M167.291 68.4964C166.24 69.9498 165.165 71.3883 164.063 72.8101C163.343 73.7387 164.983 70.9816 165.191 70.6253C166.525 68.3352 166.822 65.4348 167.72 62.9677C169.439 58.2396 171.823 53.7636 174.01 49.2432C174.977 47.2454 175.91 45.2327 176.822 43.211M176.822 43.211C176.058 44.4625 175.154 45.9947 174.226 47.5987M174.226 47.5987C172.296 50.9368 170.262 54.5861 169.173 56.6647C167.441 59.9687 165.632 63.2247 163.821 66.4846L163.666 66.7646C162.975 68.0076 162.013 69.2227 161.432 70.5168C160.147 73.3794 165.407 65.6203 166.933 62.8786C169.684 57.934 171.995 52.7843 174.226 47.5987ZM196.764 4.36127C197.086 3.83096 197.733 2.85416 197.713 2.96186C197.629 3.41619 197.186 3.92156 196.764 4.36127ZM172.204 61.3454C181.921 46.511 189.747 30.519 198.762 15.2344C198.853 15.0804 198.942 14.9256 199.031 14.7701M172.204 61.3454C172.298 61.1414 172.391 60.9376 172.484 60.7338C177.427 49.8525 182.293 38.8777 188.139 28.4419C190.704 23.8626 193.471 19.2296 196.624 14.9551M172.204 61.3454C169.73 66.7283 166.869 72.1755 164.849 77.7869M199.031 14.7701C200.148 12.8128 201.111 10.7576 202.435 8.93187C204.022 6.74339 199.826 10.9183 199.696 11.0701C198.631 12.3218 197.609 13.621 196.624 14.9551M199.031 14.7701C198.339 14.8881 197.636 14.9532 196.927 14.955L196.891 14.9551C196.807 14.9553 196.718 14.9555 196.624 14.9551M199.031 14.7701C199.384 14.71 199.734 14.6362 200.082 14.55M196.624 14.9551C195.869 14.9513 194.858 14.9015 194.305 14.425C192.633 12.9834 196.531 8.65951 197.273 7.85143C200.916 3.8873 205.41 0.690367 209.885 -2.26578C212.542 -4.02087 210.722 -1.57045 209.98 -0.401561C206.773 4.6492 203.47 9.62393 200.082 14.55M164.849 77.7869C164.542 78.6382 164.255 79.4932 163.992 80.3524C163.918 80.5933 162.829 83.1537 162.909 82.1371C163.023 80.6941 163.962 79.1514 164.849 77.7869ZM164.849 77.7869C165.205 77.2387 165.553 76.7192 165.837 76.2465C168.981 70.9969 172.316 65.8829 175.606 60.7248C179.893 54.003 187.883 40.1908 193.847 29.842M193.847 29.842C195.468 27.0287 196.94 24.4713 198.147 22.3819M193.847 29.842C194.777 27.9668 195.756 26.1194 196.82 24.3242C197.216 23.6553 197.679 23.0173 198.147 22.3819M193.847 29.842C191.835 33.8961 190.049 38.0805 188.119 42.1504C184.815 49.1174 181.646 56.3816 177.699 63.0159C175.68 66.4089 172.973 69.6027 171.388 73.2407C171.282 73.4846 170.707 74.7118 170.926 74.4958C177.416 68.1026 182.792 60.4541 187.898 52.9637C189.03 51.3029 190.153 49.6349 191.27 47.9612M198.147 22.3819C201.363 16.8137 202.698 14.5694 199.973 19.6624C199.464 20.6144 198.8 21.4955 198.147 22.3819ZM191.27 47.9612C197.877 38.0593 204.24 27.9559 210.67 17.951C213.329 13.8138 215.957 9.65573 218.557 5.48275C219.855 3.39935 217.692 5.62204 217.095 6.26877C211.636 12.1869 206.386 18.2929 201.259 24.5C200.718 25.1554 200.168 25.8163 199.627 26.4867M191.27 47.9612C191.492 47.2111 191.733 46.4665 191.968 45.7238C194.049 39.1457 196.594 32.6942 199.627 26.4867M191.27 47.9612C190.97 48.9767 190.705 50.0022 190.538 51.0465C190.502 51.2744 190.743 50.6327 190.843 50.4247C191.507 49.0434 192.324 47.7387 193.148 46.4494C194.746 43.9502 196.447 41.5134 198.155 39.0803M199.627 26.4867C198.628 27.7245 197.656 28.995 196.817 30.3247C196.313 31.1214 195.946 32.1227 195.365 32.8606C194.48 33.9853 196.682 30.3179 197.399 29.0791C200.949 22.9447 204.408 16.7558 207.927 10.6035C207.955 10.5537 207.984 10.5039 208.012 10.4541M199.627 26.4867C201.885 21.8655 204.413 17.3794 207.22 13.0771C208.573 11.0049 209.951 9.03045 211.57 7.18704M208.012 10.4541C209.523 7.81171 211.014 5.15872 212.47 2.48599C212.557 2.32689 213.646 0.555114 213.31 0.372682C212.715 0.0499564 211.004 1.93456 210.689 2.21075C208.266 4.33279 206.127 6.73019 204.132 9.25425C202.778 10.9671 201.463 12.7192 200.219 14.5153M208.012 10.4541C206.899 11.3453 205.72 12.1528 204.441 12.8307C203.103 13.5404 201.686 14.1369 200.219 14.5153M208.012 10.4541C209.267 9.44971 210.437 8.33889 211.57 7.18704M200.219 14.5153C200.04 14.7739 199.862 15.0335 199.686 15.2939C198.903 16.4508 198.267 17.7521 197.311 18.7795C196.767 19.3649 196.405 20.1081 195.857 20.6693C194.995 21.5521 197.249 18.6312 197.955 17.6194C198.667 16.5982 199.376 15.5752 200.082 14.55M200.219 14.5153C200.173 14.5271 200.127 14.5387 200.082 14.55M211.57 7.18704C211.817 6.93598 212.063 6.68296 212.306 6.42868C212.555 6.16997 212.517 6.15102 212.238 6.45015C212.01 6.69335 211.788 6.93901 211.57 7.18704ZM198.155 39.0803C199.852 36.6631 201.555 34.2496 203.171 31.7821M198.155 39.0803C200.416 34.9536 202.828 30.918 205.551 27.178M198.155 39.0803C195.849 43.2885 193.702 47.5913 191.544 51.7717C190.609 53.582 189.728 55.6066 188.682 57.4774M203.171 31.7821C204.279 30.0896 205.345 28.3718 206.34 26.61C206.774 25.8408 207.174 25.0096 207.676 24.27M203.171 31.7821C203.924 30.2361 204.714 28.6929 205.551 27.178M203.171 31.7821C202.006 34.1694 200.928 36.5633 199.895 38.8693C199.81 39.0606 199.724 39.252 199.638 39.4433M207.676 24.27C207.756 24.1519 207.838 24.036 207.924 23.9232C207.954 23.8841 207.849 24.0304 207.676 24.27ZM207.676 24.27C207.221 24.8994 206.296 26.1722 206.113 26.4172C205.924 26.6694 205.737 26.923 205.551 27.178M205.551 27.178C207.812 23.0861 210.416 19.2011 213.58 16.0281C213.741 15.8668 215.858 13.8746 215.328 15.3589C214.369 18.0468 212.939 20.5776 211.465 23.0489M188.682 57.4774C188.144 58.4394 187.563 59.3608 186.91 60.1914C186.443 60.7843 186.149 61.4142 185.606 61.8779C185.514 61.9562 185.379 62.0346 185.233 62.1149M188.682 57.4774C187.718 58.7372 186.752 59.9943 185.815 61.2755C185.626 61.5333 185.436 61.8261 185.233 62.1149M188.682 57.4774C188.989 57.0767 189.295 56.6756 189.601 56.2735C191.24 54.1141 192.848 51.9195 194.427 49.6968M185.233 62.1149C184.957 62.2666 184.646 62.4247 184.526 62.5999C184.462 62.695 183.957 63.4532 184.306 63.1745C184.656 62.8947 184.956 62.5085 185.233 62.1149ZM194.427 49.6968C195.071 48.7893 195.71 47.8771 196.345 46.9607M194.427 49.6968C193.887 51.067 193.424 52.4678 193.07 53.9104C193.052 53.9858 193.03 54.0682 193.006 54.1567M194.427 49.6968C195.519 46.922 196.924 44.2726 198.37 41.655C198.782 40.9102 199.201 40.1708 199.638 39.4433M196.345 46.9607C196.414 46.8609 196.483 46.761 196.552 46.6611M196.345 46.9607C196.399 46.8366 196.451 46.714 196.5 46.5931C197.485 44.187 198.571 41.8153 199.638 39.4433M196.345 46.9607C195.998 47.761 195.59 48.6221 195.492 49.4734C195.487 49.5236 195.453 49.9745 195.463 49.8478C195.546 48.8 196.033 47.6923 196.552 46.6611M196.552 46.6611C197.87 44.7522 199.166 42.8253 200.442 40.8845M196.552 46.6611C196.831 46.1072 197.119 45.5753 197.359 45.0867C198.89 41.9711 200.627 38.9692 202.371 35.9703C202.577 35.6164 202.78 35.2569 202.981 34.8946M200.442 40.8845C201.661 39.029 202.861 37.1608 204.042 35.2837M200.442 40.8845C200.727 40.3655 201.013 39.8472 201.299 39.3299C201.401 39.1441 203.485 34.8074 202.981 34.8946M200.442 40.8845C198.006 45.3128 195.573 49.7939 193.006 54.1567M204.042 35.2837C205.978 32.2077 207.863 29.1079 209.698 26.0007C209.852 25.7389 210.008 25.4769 210.165 25.2146M204.042 35.2837C204.487 34.2632 204.944 33.2454 205.412 32.2279C205.426 32.1974 206.934 28.754 206.145 29.7564C204.913 31.3212 203.957 33.1407 202.981 34.8946M204.042 35.2837C202.656 38.4648 201.386 41.6726 200.26 44.9795C199.979 45.8059 199.711 46.6473 199.44 47.4928M210.165 25.2146C210.595 24.4962 211.032 23.7751 211.465 23.0489M210.165 25.2146C209.189 27.9039 208.301 30.6273 207.451 33.362M210.165 25.2146C210.3 24.8442 210.436 24.4745 210.574 24.1055C210.708 23.7479 211.697 21.726 211.683 21.8117C211.617 22.2254 211.544 22.6377 211.465 23.0489M211.465 23.0489C211.071 25.1032 210.537 27.1317 210.04 29.1705M199.638 39.4433C200.498 38.0109 201.427 36.6248 202.502 35.3348C202.745 35.043 202.898 34.9089 202.981 34.8946M199.44 47.4928C199.34 47.8047 199.239 48.1172 199.138 48.4296M199.44 47.4928C198.619 48.8358 197.785 50.1697 196.947 51.4989L196.931 51.5244C196.666 51.9454 194.321 55.6695 192.432 58.1161M199.44 47.4928C200.115 46.3869 200.781 45.2749 201.431 44.1543M199.138 48.4296C198.332 50.9129 197.456 53.3965 196.125 55.6048C195.803 56.1388 195.19 57.2379 196.041 55.9883C197.198 54.2889 198.317 52.5719 199.398 50.8355M199.138 48.4296C199.856 47.2035 200.551 45.9632 201.236 44.7159M199.138 48.4296C198.509 49.5029 197.864 50.5655 197.194 51.6125C195.777 53.8261 194.344 55.9823 192.87 58.1462C192.781 58.2767 192.51 58.334 192.44 58.1392C192.437 58.1315 192.435 58.1238 192.432 58.1161M199.398 50.8355C201.529 47.4101 203.509 43.909 205.341 40.3173M199.398 50.8355C199.939 48.775 200.545 46.7272 201.236 44.7159M199.398 50.8355C198.679 53.5711 198.073 56.3289 197.534 59.0528C197.183 60.8281 195.971 66.0505 196.773 64.4283C197.569 62.8196 198.723 61.359 199.714 59.8719M205.341 40.3173C206.532 37.981 207.661 35.6065 208.726 33.1894C208.979 32.6167 209.237 32.05 209.501 31.487M205.341 40.3173C205.327 40.3626 205.314 40.4079 205.3 40.4533C203.365 46.8796 201.236 53.3212 199.714 59.8719M205.341 40.3173C206.039 37.9999 206.731 35.6769 207.451 33.362M209.501 31.487C210.114 30.1773 210.754 28.8874 211.402 27.5884C211.448 27.4956 211.536 27.2071 211.466 27.284C210.958 27.8466 210.484 28.4967 210.07 29.1246C210.06 29.1399 210.05 29.1552 210.04 29.1705M209.501 31.487C209.669 30.7121 209.852 29.9406 210.04 29.1705M209.501 31.487C209.298 32.4226 209.117 33.3632 208.974 34.3122C208.678 36.2743 208.418 38.2353 208.155 40.1915M210.04 29.1705C209.136 30.5415 208.279 31.9423 207.451 33.362M207.451 33.362C205.281 37.0817 203.311 40.9313 201.236 44.7159M201.236 44.7159C201.3 44.5284 201.365 44.3412 201.431 44.1543M192.432 58.1161C192.095 57.1189 192.72 55.2101 193.006 54.1567M192.432 58.1161C191.334 59.5385 190.39 60.529 190.099 60.1877C189.577 59.5762 190.906 57.6432 191.167 57.2179C191.789 56.2056 192.401 55.1844 193.006 54.1567M201.431 44.1543C202.242 42.7565 203.03 41.3453 203.782 39.9162C204.916 37.7615 205.782 35.488 206.899 33.3276C208.259 30.6977 204.764 36.4021 204.631 36.6601C203.392 39.0599 202.34 41.575 201.431 44.1543ZM199.714 59.8719C199.72 59.8631 199.726 59.8542 199.732 59.8453C200.346 58.9227 200.956 57.9969 201.561 57.067M199.714 59.8719C199.563 60.5228 199.418 61.1747 199.28 61.8278C199.255 61.9442 198.927 65.518 199.444 63.832C200.135 61.5802 200.833 59.3193 201.561 57.067M201.561 57.067C203.436 54.1816 205.253 51.2564 206.946 48.2613M201.561 57.067C202.498 54.1648 203.483 51.2769 204.562 48.4407L204.581 48.3901C205.53 45.8946 206.664 42.9104 208.155 40.1915M206.946 48.2613C207.812 46.729 208.646 45.1784 209.437 43.6055C210.822 40.8537 212.212 38.0054 213.284 35.11C213.454 34.6503 214.018 33.4228 213.065 34.1241C211.071 35.5922 209.474 37.7882 208.155 40.1915M206.946 48.2613C207.423 45.5873 207.792 42.894 208.155 40.1915M206.946 48.2613C206.421 51.2086 205.764 54.1325 204.839 57.0197C204.551 57.9187 204.28 58.8651 203.966 59.8005M203.966 59.8005C203.577 60.9608 203.122 62.1044 202.489 63.1198M203.966 59.8005C202.655 61.8698 201.302 63.9128 200.058 66.022M203.966 59.8005C204.653 58.7176 205.327 57.6274 205.969 56.5169C206.932 54.8503 208.042 53.1275 209.097 51.3562M202.489 63.1198C202.297 63.4277 202.088 63.7238 201.86 64.005M202.489 63.1198C202.144 62.3916 201.964 63.0616 201.86 64.005M202.489 63.1198C202.584 63.3216 202.693 63.6308 202.816 64.0714C203.028 64.8313 203.237 65.5916 203.444 66.3519M201.86 64.005C201.633 64.2852 201.386 64.5507 201.117 64.7983C200.824 65.0677 200.433 65.5127 200.058 66.022M201.86 64.005C201.841 64.1819 201.824 64.3683 201.809 64.557C201.74 65.4269 201.296 66.9906 201.672 67.8156C202.079 68.7057 202.778 67.744 203.444 66.3519M200.058 66.022C199.452 66.8429 198.886 67.8309 198.832 68.5196C198.778 69.1936 199.34 67.2621 199.677 66.6758C199.803 66.4571 199.93 66.2392 200.058 66.022ZM209.097 51.3562C210.571 48.882 211.935 46.3129 212.634 43.6696C212.689 43.4635 212.75 42.9723 212.397 43.2741C211.128 44.3568 210.48 46.2138 210.026 47.7421C209.671 48.9344 209.364 50.1402 209.097 51.3562ZM209.097 51.3562C207.687 57.7845 207.384 64.4975 206.869 71.0112C206.815 71.696 207.048 74.7887 206.346 75.6854M206.346 75.6854C206.283 75.766 206.212 75.8288 206.133 75.8706M206.346 75.6854C206.35 75.7201 206.353 75.7541 206.357 75.7874C206.519 77.2092 206.8 78.0157 206.199 76.0844C206.177 76.0131 206.155 75.9419 206.133 75.8706M206.346 75.6854C206.294 75.2239 206.233 74.6468 206.166 74.0025M206.133 75.8706C206.129 75.8726 206.125 75.8745 206.121 75.8764C206.113 75.8806 206.108 75.8458 206.105 75.7813M206.133 75.8706C206.124 75.8408 206.115 75.811 206.105 75.7813M206.105 75.7813C206.094 75.498 206.132 74.6428 206.166 74.0025M206.105 75.7813C205.141 72.6541 204.304 69.5027 203.444 66.3519M206.166 74.0025C206.186 73.6029 206.205 73.287 206.208 73.2462L207.444 57.6021C207.471 57.2589 207.798 55.9508 207.547 55.619C207.391 55.4132 206.878 56.6716 206.838 56.769L206.837 56.7738C206.162 58.4184 205.719 60.1736 205.17 61.8625L205.165 61.8779C205.087 62.1186 204.292 64.5828 203.444 66.3519M206.166 74.0025C205.741 69.9365 205.064 63.1976 204.842 66.0075M82.4756 -6.73905C85.2428 -6.52048 87.9439 -6.34227 90.7234 -6.57195C93.0231 -6.76198 95.3089 -7.06857 97.611 -7.23884C97.7853 -7.25173 100.273 -7.54441 99.599 -7.02799C96.0481 -4.30613 92.2013 -1.915 88.6098 0.768693C88.4325 0.901189 88.2223 1.08775 87.9941 1.27794M87.9941 1.27794C87.5432 1.65357 87.0218 2.04334 86.5436 2.05857C85.9543 2.07734 87.1611 1.61481 87.9941 1.27794ZM87.9941 1.27794C88.1902 1.19863 88.3656 1.12629 88.4919 1.06884C95.5166 -2.1253 102.755 -4.78404 109.948 -7.56948C112.493 -8.55516 119.977 -11.8348 117.593 -10.5041C113.331 -8.12452 109.026 -5.66877 104.897 -3.071C103.2 -2.00333 101.341 -1.37927 99.6502 -0.350539C98.3154 0.461718 97.6449 1.88839 96.7133 3.10401C96.6411 3.19822 96.4895 3.46114 96.3168 3.7231M96.3168 3.7231C96.1068 4.04164 95.8656 4.35875 95.6985 4.3693C95.2663 4.3966 95.73 4.07575 96.3168 3.7231ZM96.3168 3.7231C96.7387 3.46946 97.2243 3.19936 97.486 3.0305C99.3751 1.81151 101.466 0.867412 103.537 0.0102769C106.261 -1.11691 108.932 -2.26786 111.587 -3.50033M111.587 -3.50033C112.554 -3.94961 113.52 -4.40973 114.485 -4.88348C115.84 -5.5486 118.483 -6.68833 120.65 -7.65116M111.587 -3.50033C112.039 -3.57069 112.494 -3.63248 112.951 -3.68612L112.955 -3.68654C113.236 -3.71952 114.702 -3.89157 116.048 -3.91366M111.587 -3.50033C109.301 -3.14479 107.079 -2.57062 104.912 -1.7244C103.798 -1.28945 102.731 -0.668285 101.59 -0.385652M120.65 -7.65116C123.231 -8.79761 125.139 -9.69324 123.4 -9.23824C122.485 -8.9988 121.545 -8.36743 120.65 -7.65116ZM120.65 -7.65116C119.72 -6.9066 118.839 -6.0703 118.085 -5.48715C117.405 -4.96154 116.726 -4.43817 116.048 -3.91366M116.048 -3.91366C114.286 -2.55036 112.536 -1.17936 110.829 0.25877M116.048 -3.91366C117.244 -3.93329 118.344 -3.83453 118.432 -3.41462C118.51 -3.04462 117.057 -2.40627 116.893 -2.32529C115.078 -1.426 113.168 -0.659876 111.278 0.105458M110.829 0.25877C110.806 0.277498 110.784 0.296233 110.762 0.314983M110.829 0.25877C110.979 0.207479 111.128 0.156379 111.278 0.105458M110.829 0.25877C109.329 0.771948 107.837 1.30445 106.363 1.87494C106.058 1.99286 101.68 3.42194 103.583 3.00082C105.706 2.53122 107.752 1.55726 109.75 0.729731C110.086 0.590607 110.423 0.452613 110.762 0.314983M110.762 0.314983C110.753 0.32223 110.745 0.329481 110.736 0.336732C109.164 1.66408 107.367 3.67591 105.552 4.64976C104.964 4.9651 104.364 5.25781 104.057 5.86366C103.784 6.40047 105.096 5.59892 105.1 5.59628C108.265 3.63905 111.533 1.97868 114.902 0.396707C118.373 -1.23286 121.76 -2.95423 125.117 -4.78197M110.762 0.314983C110.934 0.245081 111.106 0.175273 111.278 0.105458M125.117 -4.78197C125.752 -5.12779 126.386 -5.47742 127.019 -5.83095C129.094 -6.98971 131.172 -8.26726 133.354 -9.21886C133.539 -9.29918 135.14 -10.1903 135.343 -10.0306C135.554 -9.86425 134.928 -9.68689 134.711 -9.52881C133.784 -8.85539 132.835 -8.2215 131.892 -7.57182C131.076 -7.00959 130.263 -6.44084 129.453 -5.86735M125.117 -4.78197C126.49 -5.262 127.868 -5.66024 129.228 -5.85831C129.317 -5.8713 129.391 -5.87391 129.453 -5.86735M125.117 -4.78197C122.896 -4.00579 120.687 -3.0158 118.588 -2.31256C116.16 -1.49943 113.71 -0.719888 111.278 0.105458M129.453 -5.86735C125.951 -3.38847 122.497 -0.82103 119.025 1.69104C117.676 2.6667 116.308 3.815 114.768 4.47629C113.755 4.91163 113.123 5.60685 112.431 6.47131C112.39 6.5224 111.735 7.09595 112 7.16377C112.419 7.27137 113.245 6.76327 113.522 6.62476C115.558 5.60649 117.536 4.46423 119.549 3.4008C121.24 2.50755 122.932 1.61821 124.629 0.737032M129.453 -5.86735C130.327 -5.77467 128.599 -3.84836 128.372 -3.54444C127.243 -2.02971 125.947 -0.629961 124.629 0.737032M124.629 0.737032C127.574 -0.792977 130.533 -2.29841 133.515 -3.75712C137.103 -5.51189 140.626 -7.53564 144.4 -8.87115C145.139 -9.13255 150.047 -10.9872 147.006 -9.32462C145.126 -8.29744 143.292 -7.21714 141.49 -6.08954M124.629 0.737032C124.039 1.34842 123.444 1.95326 122.858 2.5589C120.828 4.65554 118.729 6.63233 116.582 8.60204C116.572 8.61074 115.73 9.42275 116.218 9.4613C117.091 9.53026 118.437 8.09612 119.025 7.65138C122.721 4.85438 126.527 2.13448 130.482 -0.283222C133.58 -2.17658 136.787 -3.93998 140.093 -5.4441C140.514 -5.63583 140.992 -5.86907 141.49 -6.08954M141.49 -6.08954C138.359 -4.13015 135.329 -2.02792 132.342 0.186594C129.933 1.97329 127.165 3.34359 125.099 5.5344C124.032 6.66477 123.154 7.72092 122.097 8.6921M141.49 -6.08954C142.257 -6.42884 143.072 -6.73791 143.807 -6.81907C144.77 -6.92533 142.146 -1.76925 141.833 -1.2434C141.569 -0.799832 141.303 -0.358136 141.033 0.0817794M122.097 8.6921C121.594 9.15522 121.049 9.59902 120.425 10.0223C119.622 10.5673 119.384 9.69776 119.996 9.49064C120.7 9.25277 121.4 8.98327 122.097 8.6921ZM122.097 8.6921C124.812 7.55845 127.481 6.09642 130.114 4.89454C133.733 3.24225 137.426 1.75653 141.033 0.0817794M141.033 0.0817794C141.99 -0.362256 142.941 -0.819567 143.882 -1.2968C144.158 -1.43628 144.434 -1.57553 144.711 -1.71607M141.033 0.0817794C140.703 0.621896 140.369 1.15934 140.031 1.69428M144.711 -1.71607C145.673 -2.2054 146.636 -2.71042 147.538 -3.2953C148.034 -3.61632 148.733 -4.17681 147.597 -3.51943C146.62 -2.95439 145.659 -2.35028 144.711 -1.71607ZM144.711 -1.71607C143.118 -0.650077 141.562 0.500927 140.031 1.69428M140.031 1.69428C138.468 2.91222 136.932 4.17428 135.408 5.43507M140.031 1.69428C139.801 2.05762 139.57 2.4198 139.337 2.78089M135.408 5.43507C133.731 6.82257 132.07 8.20856 130.407 9.53256C127.881 11.543 125.605 13.6892 123.357 15.999C122.911 16.4576 122.516 17.0378 121.982 17.3972C121.876 17.4684 120.996 17.9518 120.996 17.9518C121.033 17.4903 122.264 16.7619 122.552 16.487C124.427 14.6974 126.127 12.798 128.103 11.0997C130.461 9.0737 132.899 7.20295 135.408 5.43507ZM135.408 5.43507C136.699 4.52549 138.009 3.64314 139.337 2.78089M139.337 2.78089C140.893 1.77076 142.473 0.788218 144.077 -0.178205C147.687 -2.35421 151.068 -4.86385 154.631 -7.06743C154.855 -7.20619 155.527 -7.96534 155.803 -7.94354C155.89 -7.93671 155.711 -7.79023 155.639 -7.74123C154.614 -7.04024 153.75 -6.11838 152.91 -5.21208C146.363 1.85419 140.961 9.86708 134.612 17.1032C132.094 19.9732 129.071 22.2356 126.519 25.0211C124.659 27.0521 123.219 29.3584 121.135 31.1884C119.301 32.7989 118.279 34.7132 117.073 36.7876C116.47 37.8264 116.311 39.1783 115.71 40.0839C114.563 41.8111 114.517 38.3224 114.577 37.5592C115.299 28.4265 123.128 21.6315 129.591 16.1146C129.852 15.8917 130.115 15.6703 130.378 15.4502M139.337 2.78089C136.532 7.13077 133.497 11.3213 130.378 15.4502M130.378 15.4502C131.663 14.3777 132.977 13.336 134.298 12.3032M130.378 15.4502C128.569 17.8452 126.732 20.2194 124.895 22.592C122.869 25.2092 120.786 27.8499 119.05 30.6739C118.737 31.182 117.745 32.6354 118.199 32.2482C118.708 31.8139 119.113 30.8841 119.454 30.3291C120.946 27.9011 122.627 25.633 124.439 23.4305C127.585 19.6061 130.906 15.9206 134.298 12.3032M134.298 12.3032C139.716 8.06875 145.265 3.98298 149.52 -1.47042C150.24 -2.39292 150.732 -3.33973 151.308 -4.34303L151.317 -4.35831C151.456 -4.60099 151.866 -5.31344 151.238 -4.81946C147.524 -1.89791 144.323 1.85002 141.052 5.23381C138.79 7.57432 136.529 9.92405 134.298 12.3032ZM79.0477 -8.75414C79.5189 -9.02178 79.9895 -9.2899 80.46 -9.55808M80.46 -9.55808C84.8214 -12.0442 89.1659 -14.5343 93.7193 -16.6661C94.4812 -17.0228 95.2942 -17.3605 96.122 -17.7039M80.46 -9.55808C80.6346 -9.75906 80.7895 -9.93861 80.9127 -10.0588C81.1062 -10.2476 81.3037 -10.4317 81.505 -10.6118M80.46 -9.55808C79.9434 -8.96329 79.2549 -8.1808 78.7098 -8.19352C77.6415 -8.21844 80.8758 -10.1821 81.2528 -10.4398C81.3368 -10.4972 81.4208 -10.5545 81.505 -10.6118M96.122 -17.7039C98.2821 -18.6001 100.543 -19.5355 102.264 -20.9507C104.041 -22.4124 106.378 -22.912 108.178 -24.3664C109.785 -25.6646 107.308 -24.8418 106.612 -24.5717C104.308 -23.677 102.062 -22.7099 99.8599 -21.6698M96.122 -17.7039C97.2085 -18.8377 98.4992 -20.211 99.8599 -21.6698M96.122 -17.7039C95.6159 -17.1758 95.154 -16.6996 94.7501 -16.291C91.4779 -12.9812 79.6831 -5.63716 83.997 -7.38436C91.6385 -10.4793 98.7795 -15.6404 105.093 -20.8252C108.244 -23.4132 111.156 -26.2716 114.279 -28.8931C115.074 -29.561 116.286 -31.1073 117.362 -31.374C117.791 -31.4803 116.523 -30.1289 116.495 -30.1047C114.533 -28.4019 112.494 -26.8297 110.582 -25.0575C105.001 -19.8829 98.993 -15.1868 93.4374 -9.99946C92.8381 -9.43989 91.8937 -8.47882 90.9404 -7.50719M99.8599 -21.6698C97.7477 -20.6722 95.6755 -19.6076 93.6305 -18.475M99.8599 -21.6698C101.181 -23.0857 102.567 -24.582 103.898 -26.018M93.6305 -18.475C91.583 -17.3411 89.5629 -16.1392 87.5573 -14.8688C85.4857 -13.5564 83.3435 -12.2567 81.505 -10.6118M93.6305 -18.475C89.6051 -15.8309 85.4892 -13.3223 81.505 -10.6118M93.6305 -18.475C96.3148 -20.2383 98.9589 -22.0618 101.497 -24.0458C102.302 -24.6756 103.106 -25.3343 103.898 -26.018M103.898 -26.018C106.148 -27.9611 108.303 -30.1066 110.148 -32.368C112.94 -35.7892 108.804 -31.3148 103.898 -26.018ZM90.9404 -7.50719C88.9582 -5.48666 86.9381 -3.42047 87.906 -4.82423C88.4734 -5.64724 89.384 -6.31463 90.1593 -6.91394C90.418 -7.11393 90.6784 -7.31159 90.9404 -7.50719ZM90.9404 -7.50719C93.9495 -9.75357 97.1634 -11.7276 100.281 -13.8149C107.327 -18.5328 128.081 -33.1358 121.679 -27.5744C116.059 -22.6925 110.289 -17.9943 104.425 -13.406C101.842 -11.3851 99.2399 -9.38819 96.7448 -7.25844C96.0268 -6.64554 95.3482 -5.97086 94.6448 -5.32871M94.6448 -5.32871C94.0865 -4.81908 93.5126 -4.32993 92.8911 -3.90842C92.1021 -3.37335 93.2651 -4.27749 93.3498 -4.3453C93.7733 -4.68453 94.2054 -5.01181 94.6448 -5.32871ZM94.6448 -5.32871C97.4009 -7.31649 100.444 -8.89546 103.457 -10.4479C114.67 -16.2254 125.992 -21.8451 137.401 -27.2305M137.401 -27.2305C137.608 -27.3282 137.815 -27.4259 138.022 -27.5234C138.12 -27.5696 138.985 -27.8535 138.761 -27.7913C138.294 -27.6622 137.841 -27.4676 137.401 -27.2305ZM137.401 -27.2305C136.063 -26.5102 134.843 -25.3977 133.707 -24.5361C126.19 -18.8325 118.805 -12.968 111.09 -7.5284C109.686 -6.53802 107.987 -4.96 106.458 -4.23985C105.912 -3.98261 107.043 -4.22246 107.181 -4.29699C112.634 -7.25217 118.056 -10.1894 123.651 -12.8826C127.267 -14.6231 130.886 -16.3567 134.503 -18.0946M134.503 -18.0946C137.536 -19.552 140.567 -21.0125 143.595 -22.4826C144.962 -23.1465 146.363 -23.7641 147.748 -24.4122M134.503 -18.0946C132.551 -16.8419 130.599 -15.5891 128.63 -14.3655C124.422 -11.7508 120.173 -9.21674 115.845 -6.81318M134.503 -18.0946C137.357 -19.9264 140.211 -21.7582 143.12 -23.4989C144.683 -24.4342 146.569 -25.769 148.417 -26.115C148.953 -26.2155 148.794 -25.8163 148.582 -25.5147C148.318 -25.1395 148.038 -24.7729 147.748 -24.4122M147.748 -24.4122C149.086 -25.0383 150.409 -25.6928 151.673 -26.4452C151.712 -26.4681 152.392 -26.8398 152.217 -26.7122C150.14 -25.1987 148.215 -23.3212 146.285 -21.6339C145.208 -20.6922 144.125 -19.7536 143.032 -18.8243M147.748 -24.4122C146.664 -23.0664 145.434 -21.8032 144.35 -20.4815C143.903 -19.9357 143.464 -19.3827 143.032 -18.8243M143.032 -18.8243C140.416 -16.5995 137.746 -14.4278 134.983 -12.3935M143.032 -18.8243C141.786 -17.2142 140.598 -15.5588 139.417 -13.8974M134.983 -12.3935C132.738 -10.7413 130.432 -9.17969 128.043 -7.75387M134.983 -12.3935C136.465 -12.8788 137.944 -13.379 139.417 -13.8974M134.983 -12.3935C129.196 -10.4994 123.344 -8.83279 117.46 -7.20475C117.132 -7.11391 116.528 -6.9841 115.845 -6.81318M128.043 -7.75387C125.64 -6.31952 123.153 -5.0226 120.56 -3.90907C118.853 -3.17603 117.115 -2.63624 115.305 -2.23589C115.13 -2.19718 114.804 -2.0689 114.576 -1.97426M128.043 -7.75387C123.584 -5.88689 119.136 -3.99734 114.719 -2.03752C114.665 -2.01363 114.617 -1.99262 114.576 -1.97426M128.043 -7.75387C131.36 -9.14249 134.682 -10.5186 138.001 -11.9019M114.576 -1.97426C114.311 -1.86422 114.179 -1.79967 114.576 -1.97426ZM138.001 -11.9019C140.398 -12.901 142.793 -13.9038 145.183 -14.9178C148.586 -16.3612 152.051 -17.7122 155.398 -19.2826C155.96 -19.546 157.73 -20.1544 158.066 -20.8339C158.368 -21.4452 156.783 -20.3692 156.136 -20.1543C151.569 -18.6371 147.127 -16.7356 142.617 -15.0553C141.553 -14.659 140.486 -14.2734 139.417 -13.8974M138.001 -11.9019C138.474 -12.5663 138.945 -13.2323 139.417 -13.8974M138.001 -11.9019C135.808 -8.82272 133.577 -5.77775 130.996 -3.01952C130.937 -2.95604 129.435 -1.4127 129.982 -1.74553C132.476 -3.26334 134.737 -5.15942 137.256 -6.66896C143.619 -10.4823 150.265 -13.8689 157.023 -16.9192C157.036 -16.9253 157.472 -17.0937 157.884 -17.2721M115.845 -6.81318C114.457 -6.46611 112.737 -5.94956 112.313 -5.2457C112.133 -4.94722 113.033 -5.27649 113.34 -5.44193C114.178 -5.89395 115.013 -6.35116 115.845 -6.81318ZM157.884 -17.2721C158.269 -17.4388 158.635 -17.6143 158.616 -17.6744C158.533 -17.9416 158.136 -17.4782 157.884 -17.2721ZM157.884 -17.2721C157.865 -17.2567 157.847 -17.2428 157.83 -17.2307C156.573 -16.3359 155.319 -15.4371 154.061 -14.5428C150.189 -11.7891 146.292 -9.06942 142.328 -6.44776C138.308 -3.78868 133.984 -1.59033 130.073 1.23088C128.634 2.26922 127.263 3.40704 125.927 4.57407C124.754 5.59797 126.276 4.73628 126.72 4.44098C134.055 -0.434928 141.442 -5.26327 148.581 -10.424C150.796 -12.0252 152.937 -13.7823 155.258 -15.2314C156.189 -15.8128 157.223 -16.2329 158.098 -16.8996C160.862 -19.0056 152.94 -12.2406 150.397 -9.87271C145.024 -4.87017 139.547 0.309514 134.641 5.78441C134.013 6.48514 135.109 5.48552 135.225 5.40641C139.947 2.18359 145.161 -0.381412 150.031 -3.37592C156.548 -7.38381 162.635 -11.9019 168.751 -16.4823C170.368 -17.6936 172.18 -19.7517 174.049 -20.5666C174.485 -20.7567 173.689 -19.6621 173.363 -19.3156C170.433 -16.2001 167.566 -13.0144 164.535 -9.99591C160.057 -5.53598 155.226 -1.55417 150.595 2.70493C150.219 3.05038 152.548 1.27462 152.655 1.20357C158.441 -2.65138 164.317 -6.37392 170.071 -10.2764C173.523 -12.6169 176.873 -15.0955 180.342 -17.4103C180.43 -17.4692 182.948 -19.1217 182.872 -18.8745C182.661 -18.1852 181.377 -17.452 180.883 -17.025C177.967 -14.5093 175.226 -11.8098 172.521 -9.07145C170.123 -6.64379 167.707 -4.2247 165.368 -1.74036C164.638 -0.965376 162.896 0.410472 162.568 1.48086C162.412 1.98854 163.472 0.912666 163.865 0.555473C167.27 -2.53976 170.983 -5.30888 174.483 -8.29656C177.34 -10.7351 180.044 -13.2978 182.781 -15.8636C183.24 -16.2935 183.994 -17.1877 184.525 -16.8679M211.972 22.3011C212.007 21.8501 212.038 21.3977 212.068 20.9449M212.068 20.9449C212.134 19.9576 212.199 18.9686 212.312 17.9884C212.334 17.7995 212.479 17.3089 212.781 17.4218C213.222 17.5863 212.67 19.2466 212.586 19.4783C212.41 19.9663 212.237 20.4552 212.068 20.9449ZM212.068 20.9449C209.306 28.9615 207.554 37.194 205.51 45.4465C205.363 46.0386 205.219 46.8823 205.036 47.8042M205.036 47.8042C204.641 49.794 204.071 52.1481 202.93 53.1225C202.521 53.4719 203.185 52.0722 203.395 51.5768C203.93 50.313 204.478 49.0561 205.036 47.8042ZM205.036 47.8042C207.006 43.3819 209.098 39.0209 211.16 34.6359C213.11 30.4918 215.179 26.2356 216.935 21.8927M216.935 21.8927C217.985 19.2966 218.923 16.6695 219.657 14.0168C219.69 13.8991 219.735 13.7613 219.785 13.6197M216.935 21.8927C217.763 19.0942 218.685 16.3274 219.785 13.6197M216.935 21.8927C216.23 24.2766 215.594 26.6836 214.975 29.0967C213.843 33.5117 212.676 37.9061 211.725 42.3645C211.395 43.9109 211.13 45.4755 210.796 47.0241M219.785 13.6197C220.044 12.8813 220.434 12.037 219.888 13.3662C219.854 13.4506 219.819 13.5351 219.785 13.6197ZM210.796 47.0241C210.556 48.1387 210.281 49.2451 209.921 50.3303C208.902 53.3973 207.358 56.8574 206.932 60.0786C206.83 60.8541 206.9 61.646 206.603 62.3856C205.83 64.3123 206.686 60.4455 206.773 60.0334C207.574 56.2031 209.001 52.4948 210.222 48.7879C210.416 48.2005 210.607 47.6125 210.796 47.0241ZM210.796 47.0241C213.175 39.6338 215.241 32.1599 217.33 24.6821C218.841 19.2767 220.377 13.8897 222.096 8.54836C222.492 7.31919 222.499 8.38081 222.407 9.16022C222.121 11.5633 221.182 13.8828 220.704 16.253C219.888 20.2983 219.353 24.4256 218.923 28.5486M218.923 28.5486C218.753 30.1793 218.599 31.8094 218.45 33.4334C217.737 41.2305 217.886 49.6417 215.529 57.2011C214.494 60.5187 213.772 63.8732 213.117 67.2886C212.802 68.928 212.398 70.1853 211.54 71.335M218.923 28.5486C217.382 34.9506 215.92 41.3706 214.364 47.7773C212.53 55.3326 210.48 62.8379 208.662 70.3954C208.569 70.7838 207.603 75.4202 208.633 73.868C209.257 72.9278 210.082 72.8593 210.848 72.1332M218.923 28.5486C219.097 27.8264 219.271 27.1045 219.447 26.3828C220.044 23.9366 221.955 16.6523 221.618 19.1475C221.249 21.8759 220.519 24.5683 220.125 27.301C219.139 34.1511 218.712 41.0685 218.167 47.9635C218.092 48.909 218.018 49.8485 217.939 50.7834M211.54 71.335C211.372 71.5595 211.188 71.7798 210.983 71.998C210.938 72.0456 210.893 72.0905 210.848 72.1332M211.54 71.335C211.566 71.3484 211.592 71.3632 211.619 71.3794C212.868 72.1325 214.221 74.1557 214.523 75.5079C214.844 76.9453 216.002 79.0958 216.206 76.5055C216.215 76.3995 216.225 76.2945 216.236 76.1902M211.54 71.335C210.901 71.004 210.572 71.5121 210.848 72.1332M210.848 72.1332C210.851 72.1392 210.854 72.1452 210.857 72.1512C211.462 73.4586 212.801 74.1528 213.594 75.2877C216.009 78.7423 217.657 84.1231 221.288 86.5323C221.533 86.6953 222.911 87.8672 222.968 87.1545C223.022 86.4712 222.435 85.5264 221.759 84.6394M217.939 50.7834C217.508 55.9133 216.968 60.9027 215.734 65.9618C215.691 66.1377 214.416 70.144 214.476 68.6685C214.724 62.5203 216.205 56.6266 217.939 50.7834ZM217.939 50.7834C218.654 48.3745 219.413 45.9741 220.146 43.568C220.671 41.8426 221.159 40.1133 221.602 38.3777M221.602 38.3777C222.92 33.2231 223.854 28.0132 224.275 22.6855C224.498 19.8554 225.342 16.8582 226.188 14.1575C226.273 13.8872 226.607 12.3358 226.182 13.4065C223.125 21.1217 222.275 29.9044 221.602 38.3777ZM221.602 38.3777C221.403 40.8816 221.22 43.3584 220.999 45.7726C220.91 46.7493 220.821 47.7279 220.732 48.7078M220.732 48.7078C220.114 55.4606 219.444 62.2736 218.183 68.9245M220.732 48.7078C221.696 44.4702 222.68 40.2459 223.546 36.0384C224.067 33.5127 224.66 31.0129 225.282 28.5224M220.732 48.7078C219.173 55.5608 217.665 62.4487 216.787 69.3568C216.541 71.2973 216.223 73.4119 216.302 75.4491M218.183 68.9245C218.152 69.092 218.119 69.2595 218.087 69.4268C217.66 71.6252 216.671 73.473 216.311 75.6505M218.183 68.9245C217.425 71.1322 216.584 73.1454 216.302 75.4491M218.183 68.9245C218.223 68.8099 218.262 68.6948 218.301 68.579C220.004 63.5043 221.101 58.2884 222.234 53.0648C223.979 45.0253 224.63 36.7791 225.277 28.5839L225.282 28.5224M216.311 75.6505C216.282 75.8281 216.257 76.0079 216.236 76.1902M216.311 75.6505C216.308 75.5835 216.305 75.5163 216.302 75.4491M216.311 75.6505C216.351 76.4103 216.449 77.1581 216.628 77.8808M216.236 76.1902C216.226 76.7503 216.376 77.3179 216.628 77.8808M216.236 76.1902C216.237 76.1331 216.24 76.0761 216.245 76.0191C216.26 75.827 216.279 75.6371 216.302 75.4491M221.759 84.6394C221.575 84.3978 221.384 84.1604 221.199 83.9337M221.759 84.6394C221.741 85.1526 221.722 85.6898 221.548 86.1287C221.301 86.7514 221.139 84.6928 221.161 84.4178C221.174 84.2564 221.186 84.0951 221.199 83.9337M221.759 84.6394C221.768 84.3869 221.777 84.1402 221.804 83.9139C222.219 80.4633 222.823 77.0133 223.355 73.5789C224.388 66.9038 224.968 60.0107 226.769 53.4882C227.91 49.3532 229.276 45.1454 229.884 40.8949C230.588 35.9807 231.555 31.0591 233.004 26.3002M221.199 83.9337C220.773 83.4146 220.371 82.9519 220.128 82.6232C219.751 82.1128 219.247 81.5381 218.728 80.9216M221.199 83.9337C221.878 75.0784 222.01 66.2263 222.711 57.3605C222.887 55.1282 223.113 52.8825 223.389 50.6317M218.728 80.9216C217.933 79.9786 217.102 78.938 216.628 77.8808M218.728 80.9216C218.217 83.545 217.081 79.3702 216.787 78.4439C216.728 78.2581 216.676 78.0703 216.628 77.8808M218.728 80.9216C218.728 80.9191 218.729 80.9165 218.729 80.9139C219.071 79.1465 219.06 77.2925 219.238 75.5051C219.612 71.7562 220.254 68.0283 220.857 64.3108C221.595 59.7587 222.415 55.1677 223.389 50.6317M225.282 28.5224L225.291 28.4106C225.59 24.6257 226.364 20.8808 227.333 17.2171C227.437 16.8249 227.723 16.5287 228.075 16.2968C228.359 16.1101 228.223 16.9838 228.141 17.3136C227.218 21.0661 226.217 24.7837 225.282 28.5224ZM223.389 50.6317C223.741 48.9925 224.114 47.3604 224.51 45.7399C225.924 39.9498 226.766 34.0085 227.795 28.1284M223.389 50.6317C224.314 43.0808 225.794 35.4736 227.795 28.1284M227.795 28.1284C227.852 27.8033 227.91 27.4784 227.968 27.1537C228.349 25.0269 229.157 23.1121 229.882 21.1479M227.795 28.1284C228.438 25.7711 229.134 23.4407 229.882 21.1479M229.882 21.1479C230.015 20.7879 230.145 20.4264 230.269 20.0615M229.882 21.1479C229.923 21.0227 229.964 20.8976 230.005 20.7726C230.081 20.5431 230.17 20.3055 230.269 20.0615M230.269 20.0615C230.499 19.3845 230.709 18.6963 230.878 17.9865C231.142 16.8803 231.793 15.8939 231.947 14.7755C231.974 14.5864 232.239 14.3864 232.215 14.6987C232.081 16.3863 230.952 18.3755 230.269 20.0615ZM233.004 26.3002C233.283 25.3857 233.579 24.4772 233.895 23.5759C234.615 21.5219 235.094 19.5511 235.265 17.3868C235.483 14.6252 233.659 22.7017 233.162 25.4268C233.109 25.7177 233.056 26.0089 233.004 26.3002ZM233.004 26.3002C231.501 34.7608 230.572 43.3475 229.895 51.908C229.552 56.2606 228.668 60.5282 228.285 64.8649C228.187 65.9656 227.975 67.9855 227.775 69.7672M227.775 69.7672C227.5 72.2365 227.25 74.2482 227.371 72.7214C227.449 71.7307 227.591 70.7466 227.775 69.7672ZM227.775 69.7672C228.386 66.5174 229.452 63.3193 230.129 60.1C231.6 53.1144 233.127 46.1497 234.68 39.1869M234.68 39.1869C235.151 37.0757 235.624 34.9647 236.099 32.8534C237.261 27.6904 240.825 12.229 239.382 17.3204C239.121 18.2381 238.582 19.073 238.29 19.9913C237.191 23.4376 236.607 27.0725 235.981 30.6254C235.48 33.4686 235.07 36.3265 234.68 39.1869ZM234.68 39.1869C234.039 43.8793 233.45 48.5784 232.597 53.2308C232.418 54.2082 232.124 55.9695 231.882 57.5767M231.882 57.5767C231.52 59.9799 231.275 62.0385 231.704 60.6159C232.037 59.5123 232.182 58.3541 232.377 57.2069M231.882 57.5767C232.051 57.4447 232.216 57.3229 232.377 57.2069M231.882 57.5767C231.75 57.6796 231.615 57.7887 231.477 57.9061M232.377 57.2069C232.477 56.6193 232.59 56.0345 232.747 55.4614C233.942 51.1159 235.304 46.8006 236.738 42.5293C238.593 37.001 240.353 31.3739 241.785 25.7164C241.992 24.9001 242.212 22.3767 242.146 23.2161C241.801 27.5892 239.986 31.9973 239.202 36.3287C238.318 41.2077 237.113 46.0396 236.723 50.979C236.713 51.0994 236.707 51.226 236.705 51.3461M232.377 57.2069C233.447 56.4344 234.319 55.9203 234.987 54.3658C235.455 53.2787 236.056 52.2944 236.705 51.3461M236.705 51.3461C236.693 51.9277 236.771 52.3582 236.998 51.2128C237.025 51.077 237.053 50.9414 237.081 50.806M236.705 51.3461C236.829 51.1649 236.954 50.985 237.081 50.806M237.081 50.806C238.215 45.3986 240.457 40.3871 242.181 35.161C242.995 32.6963 243.758 30.1751 244.421 27.6702C244.873 25.9599 243.695 31.1402 243.149 32.8229C242.047 36.2183 241.594 39.6905 240.864 43.1652C240.861 43.1798 240.237 45.3284 240.649 45.057C240.735 45.0009 240.816 44.9274 240.895 44.8396M237.081 50.806C238.121 49.3385 239.235 47.9281 240.093 46.3182C240.313 45.9045 240.587 45.4018 240.895 44.8396M240.895 44.8396C241.169 44.5339 241.406 44.0548 241.616 43.5318M240.895 44.8396C241.119 44.4313 241.362 43.9916 241.616 43.5318M241.616 43.5318C241.965 42.663 242.24 41.6732 242.491 41.1565C243.461 39.1578 244.613 36.8329 245.911 35.0315C247.913 32.2542 244.173 38.909 241.616 43.5318Z" stroke="#2553F5" stroke-width="3" stroke-linecap="round"/>
</svg>
