<svg width="145" height="399" viewBox="0 0 145 399" fill="none" xmlns="http://www.w3.org/2000/svg">
<path d="M95.677 -18C93.082 -17.6756 94.4869 -7.61474 94.4211 -5.90381C93.9042 7.5372 89.9971 21.5963 85.8943 34.3507C78.8232 56.3326 66.7906 80.6765 51.6548 98.3349C45.9005 105.048 39.2971 110.581 34.5351 118.165C29.9815 125.417 25.9657 132.975 21.9101 140.506C13.4928 156.138 8.97125 176.645 6.44284 194.047C4.53159 207.201 4.9403 220.909 5.31915 234.169C5.70177 247.561 11.1558 259.347 17.1509 271.119C26.992 290.443 44.0623 309.399 59.3223 324.659C78.3744 343.711 99.1012 362.665 122.249 376.613C133.146 383.18 144.081 387.461 156.29 390.693C159.835 391.631 163.368 393.667 167.064 393.667" stroke="#2553F5" stroke-width="10" stroke-linecap="round"/>
</svg>
