<svg width="30" height="31" viewBox="0 0 30 31" fill="none" xmlns="http://www.w3.org/2000/svg">
<path d="M14.1419 29.0093C10.4984 29.0093 5.74347 25.9617 2.79206 23.9085C2.65918 23.8161 0.478161 22.0958 1.11689 21.9133C2.47379 21.5257 4.64755 21.8204 6.01066 21.9698C7.70477 22.1555 9.39518 22.4828 11.0927 22.5721C12.4895 22.6456 10.9175 21.369 10.3962 20.4829C8.95272 18.0289 7.74521 15.4646 6.68826 12.8222C6.42082 12.1536 6.00655 11.2334 6.87648 11.7305C8.66088 12.7502 10.458 13.1574 12.4102 13.7821C13.7358 14.2063 16.7134 15.9608 18.1322 15.6455C18.3603 15.5948 17.7492 2.77826 18.0381 1.623C18.2879 0.623539 18.7567 0.94508 18.9039 1.75475C19.2807 3.82718 21.9905 5.88994 23.2895 7.40142C24.3135 8.59306 26.3873 11.5209 28.0326 12.0693" stroke="#2553F5" stroke-width="2" stroke-linecap="round"/>
</svg>
