<svg width="390" height="153" viewBox="0 0 390 153" fill="none" xmlns="http://www.w3.org/2000/svg">
<path d="M474.441 8.09303C473.729 13.793 425.211 5.27228 419.867 4.78146C392.646 2.28159 357.253 -1.74614 340.985 25.9092C326.027 51.3383 315.792 81.0569 291.378 99.757C279.522 108.838 261.772 115.495 247.666 120.156C230.499 125.829 213.66 133.189 196.138 137.774C169.491 144.747 136.54 158.289 110.567 141.615C98.3192 133.752 90.4381 123.34 81.6901 111.877C73.3027 100.887 64.6216 88.4035 58.443 76.0463C53.043 65.2464 47.8045 54.6484 40.7593 44.7851C36.0294 38.1633 30.9589 30.4701 22.4794 28.9559C16.3625 27.8635 10.6075 28.1374 4.72946 29.8169C0.858412 30.9229 -1.9232 33.1284 -6 33.1284" stroke="#F57C25" stroke-width="5" stroke-linecap="round"/>
</svg>
