<svg width="94" height="22" viewBox="0 0 94 22" fill="none" xmlns="http://www.w3.org/2000/svg">
    <path d="M2 3.42032C16.6828 3.42032 32.1642 4.90486 46.7401 3.26251C57.6289 2.0356 69.3418 2 80.2755 2C82.59 2 84.9046 2 87.2192 2C87.8004 2 92.4975 2.13903 92.0326 2.55235C90.5195 3.89725 81.717 2 79.802 2C70.9916 2 61.4279 2.60481 52.7765 4.48556C44.3823 6.31037 35.8609 8.39144 27.2107 8.39144C20.5797 8.39144 40.4701 8.99754 47.0557 9.77231C52.8526 10.4543 59.1173 11.4356 64.7703 12.6919C72.1699 14.3362 49.1298 12.4144 42.203 15.493C41.0008 16.0273 45.8696 16.272 46.385 16.5583C48.0378 17.4765 49.5064 19.0067 51.0011 19.754" stroke="#F57C25" stroke-width="3" stroke-linecap="round"/>
</svg>