<svg width="57" height="28" viewBox="0 0 57 28" fill="none" xmlns="http://www.w3.org/2000/svg">
<path d="M2.04425 10.716C2.04425 14.6277 2.04425 18.9153 2.04425 22.6222C2.04425 23.1512 1.88874 25.5742 2.16077 25.0718C3.78207 22.0771 6.24541 19.9523 8.88947 17.8369C12.1072 15.2625 15.3276 12.6019 18.5019 9.97543C20.1589 8.60439 20.0867 10.3533 19.5797 11.7699C18.3721 15.1436 17.4711 18.9016 17.2785 22.4798C17.1998 23.9419 16.407 27.7446 17.7737 25.0718C20.5203 19.7002 26.4288 16.1499 30.8815 12.2541C34.4398 9.14093 32.8627 12.6077 32.4545 15.1025C31.9657 18.0897 31.9302 20.9987 31.9302 24.0179C31.9302 26.4501 32.0173 25.471 32.804 23.9324C35.4701 18.7182 41.518 14.017 45.7662 10.0324C48.7384 7.24467 52.093 4.84259 55 2" stroke="#F57C25" stroke-width="3" stroke-linecap="round"/>
</svg>
