<svg width="183" height="40" viewBox="0 0 183 40" fill="none" xmlns="http://www.w3.org/2000/svg">
<path d="M2.21875 2.0683C3.21983 2.73569 4.48088 2.59899 5.637 2.60802C10.0941 2.64284 14.553 2.60802 19.0102 2.60802C36.4712 2.60802 53.9323 2.60802 71.3934 2.60802C89.6441 2.60802 107.895 2.60802 126.145 2.60802C138.816 2.60802 151.237 2.87019 163.776 4.76692C168.01 5.40732 172.238 6.0382 176.43 6.92582C176.689 6.9807 181.236 7.90779 180.208 8.27513C179.181 8.64197 178.008 8.54499 176.939 8.54499C170.633 8.54499 164.326 8.52119 158.019 8.54499C125.113 8.66916 92.299 10.4544 59.5495 13.6124C47.566 14.7679 35.4882 16.1649 23.4479 16.6109C21.564 16.6806 17.3229 16.6223 21.7088 15.4415C34.54 11.9869 48.1046 11.7954 61.2886 11.2436C73.4644 10.734 85.622 10.1642 97.8099 10.1642C100.004 10.1642 98.5664 10.1151 97.4201 10.464C92.6072 11.9288 88.9225 12.9579 84.5567 15.9212C76.1474 21.629 66.816 27.6649 59.6094 34.8715C59.3735 35.1074 57.2706 37.7904 57.2706 37.1504" stroke="#2553F5" stroke-width="4" stroke-linecap="round"/>
</svg>
