<svg width="26" height="32" viewBox="0 0 26 32" fill="none" xmlns="http://www.w3.org/2000/svg">
<path d="M14.3702 2.10908C12.0795 2.10908 9.6209 1.83562 7.35217 2.15466C4.70402 2.52705 3.69928 6.32606 3.19499 8.53493C1.85815 14.3905 0.485284 23.6061 6.01114 27.6302C8.10592 29.1557 10.5777 30 13.1409 30C16.4992 30 18.1466 27.3344 20.0025 24.7591C23.1409 20.404 26.2008 14.9909 21.8129 10.5174C18.7226 7.36674 15.1205 6.67132 11.1517 8.69444C7.51636 10.5476 7.53097 13.9811 7.53097 17.6724C7.53097 20.0722 8.73145 19.746 10.7494 19.746C13.1136 19.746 13.1633 18.741 13.1633 16.4647" stroke="#F57C25" stroke-width="3" stroke-linecap="round"/>
</svg>
