<svg width="79" height="67" viewBox="0 0 79 67" fill="none" xmlns="http://www.w3.org/2000/svg">
<path d="M22.8793 2.15046C20.6862 2.15046 18.0925 1.7479 15.9599 2.25971C9.63106 3.77865 5.59836 15.2989 4.16055 20.6508C2.25954 27.7267 0.506976 39.8879 4.01487 46.6531C7.95346 54.249 16.4517 59.7431 24.3361 62.3128C32.7211 65.0458 45.1736 67.0868 53.3611 62.9319C63.2207 57.9286 72.6756 45.9643 75.9767 35.4364C78.3927 27.7313 77.4572 20.5095 72.6626 14.0227C68.8111 8.81181 62.9468 7.4956 56.9665 6.08359C39.6469 1.99424 17.4744 35.7804 39.2674 43.4484C42.7346 44.6683 46.303 45.9411 50.0471 45.3421C54.0204 44.7064 55.6104 39.2028 56.1653 35.8734C56.9435 31.2045 49.1742 22.6885 45.8226 27.7158" stroke="#F57C25" stroke-width="3" stroke-linecap="round"/>
</svg>
