<svg width="41" height="37" viewBox="0 0 41 37" fill="none" xmlns="http://www.w3.org/2000/svg">
<path d="M14.4224 34.2869C14.4224 34.0071 14.4228 33.7274 14.4235 33.4477M14.4235 33.4477C14.4359 28.6903 14.5528 23.9666 14.7205 19.2314M14.4235 33.4477C14.6052 33.1407 14.7819 32.843 14.8991 32.5655C15.8041 30.4222 17.074 28.4151 18.236 26.4081C19.0067 25.0769 19.817 23.7664 20.6634 22.4771M14.4235 33.4477C14.0746 34.0371 13.7073 34.6605 13.7073 35.2404M14.7205 19.2314C14.7714 17.7938 14.827 16.3553 14.8858 14.9144C14.9715 12.8168 15.3598 10.7763 15.7217 8.72335M14.7205 19.2314C16.1991 19.9726 17.6491 20.7512 19.057 21.5484C19.5952 21.8532 20.1304 22.1633 20.6634 22.4771M14.7205 19.2314C11.7224 17.7284 8.60648 16.3788 5.48425 15.3381C4.55556 15.0285 2.79699 15.008 2.08113 14.2126C1.70528 13.7949 2.7471 13.4786 2.9286 13.4181C6.53031 12.2175 10.0448 10.8294 13.6014 9.49851C14.3079 9.23416 15.0146 8.9759 15.7217 8.72335M15.7217 8.72335C15.9405 7.48185 16.1496 6.2358 16.2762 4.96986C16.2989 4.74282 16.3172 4.17882 16.3294 3.62325M15.7217 8.72335C16.5246 8.43658 17.328 8.15718 18.1322 7.88457M16.3294 3.62325C16.3449 2.9144 16.3504 2.21928 16.3424 2.25531C16.2508 2.66762 16.2598 3.14807 16.3294 3.62325ZM16.3294 3.62325C16.406 4.1465 16.5562 4.66335 16.7264 5.07579C17.1235 6.03752 17.6036 6.9712 18.1322 7.88457M18.1322 7.88457C19.324 9.94401 20.7621 11.9002 22.0496 13.8418C22.8125 14.9923 23.5757 16.1471 24.3309 17.3073M18.1322 7.88457C24.0163 5.88997 29.9418 4.25927 36.0063 2.77174L36.1164 2.74475C37.0111 2.52543 37.9582 2.29326 38.8268 2.00372C39.0178 1.94007 37.9217 2.71237 37.7675 2.85119C32.897 7.23465 28.3293 12.0696 24.3309 17.3073M24.3309 17.3073C25.1549 18.573 25.9694 19.8451 26.7636 21.1247C27.6529 22.5574 28.2632 24.1554 29.2001 25.5607C29.4025 25.8643 31.4232 28.3282 30.8156 28.3282C29.6245 28.3282 28.446 27.2115 27.4919 26.6333C25.2139 25.2526 22.9594 23.8293 20.6634 22.4771M24.3309 17.3073C23.0467 18.9896 21.8213 20.7134 20.6634 22.4771M5.84177 12.5971C9.18458 13.4505 12.0208 15.6886 13.9324 18.4366C14.79 19.6694 15.4748 21.0491 16.21 22.3562C16.3956 22.6861 17.4905 24.7667 17.1766 23.6406C16.1865 20.0878 15.4925 16.5603 15.0845 12.8884C15.0407 12.4941 14.4975 9.8301 15.0315 9.52499C15.4443 9.28909 15.5628 10.5705 15.6141 10.7432C16.3067 13.0762 17.8217 15.0065 19.3748 16.8344C20.4751 18.1295 21.5353 19.4717 22.7382 20.6745C22.9241 20.8604 23.4797 21.6524 23.4797 21.032C23.4797 16.7197 23.003 12.4358 23.003 8.12137C23.003 7.83355 22.8118 6.39995 23.2413 6.39995C23.5992 6.39995 23.5152 7.10414 23.6121 7.35335C23.9831 8.30728 24.6923 9.12112 25.5057 9.72361C26.2578 10.2807 28.0083 12.1501 28.0083 10.293C28.0083 8.33471 28.4068 5.84269 29.9152 4.49315C31.0494 3.4783 31.3698 7.80548 32.537 6.6383" stroke="#F57C25" stroke-width="3" stroke-linecap="round"/>
</svg>
