<svg width="24" height="45" fill="none" xmlns="http://www.w3.org/2000/svg"><path d="M5.636 3.493c0 1.69.617 3.136 1.17 4.715 1.095 3.13 1.837 6.332 1.837 9.653 0 2.27-.053 4.171-1.43 6.043-1.601 2.178-3.068 4.598-4.046 7.12-.729 1.877-1.709 4.524-.539 6.423 1.437 2.33 4.04 4.271 6.683 4.956 5.24 1.359 9.87-2.69 11.362-7.537 1.464-4.757 1.105-10.08-.743-14.656-1.185-2.935-3.159-5.346-4.734-8.085-1.498-2.605-3.838-4.945-5.885-7.12-.933-.992-2.042-2.249-3.341-2.682" stroke="#2553F5" stroke-width="3" stroke-linecap="round"/><path d="M6.123 40.62c0 .615-.581-1.082-.883-1.617-.294-.52-.684-1.188-.752-1.8-.071-.642-.035-1.607-.33-2.228-.232-.491-.264-.942-.264-1.486 0-.481.24.944.479 1.362.975 1.707 2.083 3.302 3.203 4.911.689.991 1.34 2.045 2.179 2.922.064.068.665.818.677.611.056-1.005-.451-1.784-.9-2.641-.98-1.872-1.811-3.88-2.633-5.828-.608-1.44-2.395-5.775-1.734-4.358 1.608 3.445 3.652 6.612 5.919 9.682.404.548 2.194 3.1 1.46.801-.275-.864-.824-1.642-1.22-2.452-.746-1.52-1.341-3.11-2.048-4.647-.647-1.406-1.422-2.696-2.253-3.995-.548-.855-.867-1.607-1.049-2.608-.015-.084-.177-1.085-.033-.71.422 1.097 1.235 1.994 1.899 2.955 1.864 2.697 3.598 5.579 5.638 8.147.638.804 1.282 1.55 2.08 2.17.751.586-.06-.795-.174-.99-1.703-2.91-2.977-5.998-4.44-9.03-.891-1.846-2.622-3.958-2.741-6.108-.013-.227-.165-.642.09-.19.932 1.647 2.37 2.986 3.658 4.35 1.293 1.372 2.586 2.724 3.739 4.218.366.474.808.986 1.015 1.544.254.685.924 1.61 1.602 1.931.624.296.075-1.117.033-1.222-1.135-2.812-2.112-5.697-3.302-8.485-1.091-2.556-2.443-4.85-4.458-6.753-.434-.41-1.384-1.935-.974-1.502.933.984 1.657 2.073 2.691 2.988a53.478 53.478 0 0 1 4.507 4.516c1.106 1.243 2.022 2.6 3.063 3.87.145.178.635.734.454.133-.213-.705-.605-1.359-.958-1.998-.968-1.751-1.786-3.533-2.534-5.39-1.246-3.093-2.324-6.697-4.912-8.997-.5-.445-1.25-.93-1.485-1.577-.17-.468-.435-.949-.818-1.255-.273-.219.075.498.075.826 0 1.474.85 2.98 1.04 4.45.189 1.462 1.155 3.605 2.229 4.68" stroke="#2553F5" stroke-width="3" stroke-linecap="round"/></svg>