<svg width="104" height="66" viewBox="0 0 104 66" fill="none" xmlns="http://www.w3.org/2000/svg">
<path d="M68.5579 24.2479C87.8836 29.2894 32.9821 1.63285 13.0102 1.78606C5.90788 1.84054 3.12416 4.20891 10.0123 9.84123C30.6545 26.72 55.8954 40.6916 79.6076 52.6001C85.1969 55.4071 90.881 58.248 96.9478 59.7694C106.712 62.2179 100.652 53.5603 99.2103 51.0318C94.2042 42.2495 86.8939 35.6056 80.4254 28.0137M35.7941 20.512C26.8536 17.1636 17.7289 14.2538 8.13852 13.5614C-2.93257 12.7621 2.07885 17.8291 8.07737 22.2C23.5083 33.444 40.5564 42.0443 57.4884 50.7546C65.767 55.0133 74.1335 59.8861 82.7772 63.4315C85.9641 64.7387 84.1058 63.5545 83.9631 62.3097" stroke="#F57C25" stroke-width="2" stroke-linecap="round"/>
</svg>
